<svg xmlns="http://www.w3.org/2000/svg" xmlns:xlink="http://www.w3.org/1999/xlink" fill="none" version="1.1" width="159.60269165039062" height="143.0628662109375" viewBox="0 0 159.60269165039062 143.0628662109375"><defs><filter id="master_svg0_22_244/18_182" filterUnits="objectBoundingBox" color-interpolation-filters="sRGB" x="-6" y="-10" width="93.42723083496094" height="99.35869598388672"><feFlood flood-opacity="0" result="BackgroundImageFix"/><feColorMatrix in="SourceAlpha" type="matrix" values="0 0 0 0 0 0 0 0 0 0 0 0 0 0 0 0 0 0 127 0"/><feOffset dy="4" dx="8"/><feGaussianBlur stdDeviation="3.5"/><feColorMatrix type="matrix" values="0 0 0 0 0 0 0 0 0 0 0 0 0 0 0 0 0 0 0.3019607961177826 0"/><feBlend mode="normal" in2="BackgroundImageFix" result="effect1_dropShadow"/><feBlend mode="normal" in="SourceGraphic" in2="effect1_dropShadow" result="shape"/></filter><linearGradient x1="0.7682770490646362" y1="0.1499810516834259" x2="-1.254136085510254" y2="1.8260393142700195" id="master_svg1_11_03068"><stop offset="0%" stop-color="#75CE58" stop-opacity="1"/><stop offset="100.00002384185791%" stop-color="#4A0D23" stop-opacity="1"/><stop offset="100.00002384185791%" stop-color="#75CE58" stop-opacity="0"/></linearGradient><linearGradient x1="0.4966343343257904" y1="-0.8716837763786316" x2="0.5021681785583496" y2="0.5" id="master_svg2_11_03143"><stop offset="0%" stop-color="#617440" stop-opacity="1"/><stop offset="94.96371746063232%" stop-color="#4A0D23" stop-opacity="1"/><stop offset="100.00001192092896%" stop-color="#4A0D23" stop-opacity="0"/></linearGradient><linearGradient x1="0.6269410848617554" y1="0.28515830636024475" x2="-0.34496769309043884" y2="1.583755612373352" id="master_svg3_13_4130"><stop offset="0%" stop-color="#75CE58" stop-opacity="1"/><stop offset="100.00008344650269%" stop-color="#4A0D23" stop-opacity="1"/></linearGradient><filter id="master_svg4_22_244/18_189" filterUnits="objectBoundingBox" color-interpolation-filters="sRGB" x="-4" y="-4" width="26.169832229614258" height="9"><feFlood flood-opacity="0" result="BackgroundImageFix"/><feBlend mode="normal" in="SourceGraphic" in2="BackgroundImageFix" result="shape"/><feGaussianBlur stdDeviation="1" result="effect1_foregroundBlur"/></filter><filter id="master_svg5_22_244/18_194" filterUnits="objectBoundingBox" color-interpolation-filters="sRGB" x="-4" y="-4" width="26.17035675048828" height="8"><feFlood flood-opacity="0" result="BackgroundImageFix"/><feBlend mode="normal" in="SourceGraphic" in2="BackgroundImageFix" result="shape"/><feGaussianBlur stdDeviation="1" result="effect1_foregroundBlur"/></filter><filter id="master_svg6_22_244/18_195" filterUnits="objectBoundingBox" color-interpolation-filters="sRGB" x="-4" y="-4" width="21.21385955810547" height="9.60771656036377"><feFlood flood-opacity="0" result="BackgroundImageFix"/><feBlend mode="normal" in="SourceGraphic" in2="BackgroundImageFix" result="shape"/><feGaussianBlur stdDeviation="1" result="effect1_foregroundBlur"/></filter><filter id="master_svg7_22_244/18_191" filterUnits="objectBoundingBox" color-interpolation-filters="sRGB" x="-4" y="-4" width="24.64029312133789" height="9"><feFlood flood-opacity="0" result="BackgroundImageFix"/><feBlend mode="normal" in="SourceGraphic" in2="BackgroundImageFix" result="shape"/><feGaussianBlur stdDeviation="1" result="effect1_foregroundBlur"/></filter><filter id="master_svg8_22_244/18_202" filterUnits="objectBoundingBox" color-interpolation-filters="sRGB" x="-6" y="-6" width="24.683194160461426" height="12"><feFlood flood-opacity="0" result="BackgroundImageFix"/><feBlend mode="normal" in="SourceGraphic" in2="BackgroundImageFix" result="shape"/><feGaussianBlur stdDeviation="1.5" result="effect1_foregroundBlur"/></filter><filter id="master_svg9_22_244/18_201" filterUnits="objectBoundingBox" color-interpolation-filters="sRGB" x="-6" y="-6" width="29.111984252929688" height="12"><feFlood flood-opacity="0" result="BackgroundImageFix"/><feBlend mode="normal" in="SourceGraphic" in2="BackgroundImageFix" result="shape"/><feGaussianBlur stdDeviation="1.5" result="effect1_foregroundBlur"/></filter><filter id="master_svga_22_244/18_203" filterUnits="objectBoundingBox" color-interpolation-filters="sRGB" x="-6" y="-6" width="24.420353889465332" height="13.361007332801819"><feFlood flood-opacity="0" result="BackgroundImageFix"/><feBlend mode="normal" in="SourceGraphic" in2="BackgroundImageFix" result="shape"/><feGaussianBlur stdDeviation="1.5" result="effect1_foregroundBlur"/></filter><filter id="master_svgb_22_244/18_204" filterUnits="objectBoundingBox" color-interpolation-filters="sRGB" x="-6" y="-6" width="26.777660369873047" height="12"><feFlood flood-opacity="0" result="BackgroundImageFix"/><feBlend mode="normal" in="SourceGraphic" in2="BackgroundImageFix" result="shape"/><feGaussianBlur stdDeviation="1.5" result="effect1_foregroundBlur"/></filter><radialGradient cx="0" cy="0" r="1" gradientUnits="userSpaceOnUse" id="master_svgc_18_04790" gradientTransform="translate(92.885498046875 55.64183521270752) rotate(90) scale(8.03200626373291 8.022069931030273)"><stop offset="57.85714387893677%" stop-color="#E8AFEB" stop-opacity="1"/><stop offset="100%" stop-color="#FF5100" stop-opacity="1"/></radialGradient><filter id="master_svgd_22_244/18_262" filterUnits="objectBoundingBox" color-interpolation-filters="sRGB" x="-16" y="-12" width="58.425642013549805" height="54.678606033325195"><feFlood flood-opacity="0" result="BackgroundImageFix"/><feColorMatrix in="SourceAlpha" type="matrix" values="0 0 0 0 0 0 0 0 0 0 0 0 0 0 0 0 0 0 127 0"/><feOffset dy="4" dx="0"/><feGaussianBlur stdDeviation="4"/><feColorMatrix type="matrix" values="0 0 0 0 0 0 0 0 0 0 0 0 0 0 0 0 0 0 0.3019607961177826 0"/><feBlend mode="normal" in2="BackgroundImageFix" result="effect1_dropShadow"/><feBlend mode="normal" in="SourceGraphic" in2="effect1_dropShadow" result="shape"/></filter><linearGradient x1="0.5" y1="0.9304513931274414" x2="0.6632646918296814" y2="0.11299101263284683" id="master_svge_18_06567"><stop offset="0%" stop-color="#FF5100" stop-opacity="1"/><stop offset="99.99996423721313%" stop-color="#FF915E" stop-opacity="1"/></linearGradient><filter id="master_svgf_22_244/18_271" filterUnits="objectBoundingBox" color-interpolation-filters="sRGB" x="-14" y="-14" width="58.64018440246582" height="54.001251220703125"><feFlood flood-opacity="0" result="BackgroundImageFix"/><feColorMatrix in="SourceAlpha" type="matrix" values="0 0 0 0 0 0 0 0 0 0 0 0 0 0 0 0 0 0 127 0"/><feOffset dy="2" dx="2"/><feGaussianBlur stdDeviation="4"/><feColorMatrix type="matrix" values="0 0 0 0 0 0 0 0 0 0 0 0 0 0 0 0 0 0 0.3019607961177826 0"/><feBlend mode="normal" in2="BackgroundImageFix" result="effect1_dropShadow"/><feBlend mode="normal" in="SourceGraphic" in2="effect1_dropShadow" result="shape"/></filter><linearGradient x1="0.1279670149087906" y1="0.34531018137931824" x2="0.8500642776489258" y2="0.8593490123748779" id="master_svgg_18_05916"><stop offset="0%" stop-color="#FF5100" stop-opacity="1"/><stop offset="99.99993443489075%" stop-color="#FE915E" stop-opacity="1"/></linearGradient><filter id="master_svgh_22_244/18_274" filterUnits="objectBoundingBox" color-interpolation-filters="sRGB" x="-10" y="-12" width="59.62617874145508" height="53.9404354095459"><feFlood flood-opacity="0" result="BackgroundImageFix"/><feColorMatrix in="SourceAlpha" type="matrix" values="0 0 0 0 0 0 0 0 0 0 0 0 0 0 0 0 0 0 127 0"/><feOffset dy="4" dx="6"/><feGaussianBlur stdDeviation="4"/><feColorMatrix type="matrix" values="0 0 0 0 0 0 0 0 0 0 0 0 0 0 0 0 0 0 0.3019607961177826 0"/><feBlend mode="normal" in2="BackgroundImageFix" result="effect1_dropShadow"/><feBlend mode="normal" in="SourceGraphic" in2="effect1_dropShadow" result="shape"/></filter><linearGradient x1="0.8758713603019714" y1="0.5610037446022034" x2="0.5" y2="0.09425324946641922" id="master_svgi_18_07014"><stop offset="0%" stop-color="#FF5100" stop-opacity="1"/><stop offset="99.99995827674866%" stop-color="#FF915E" stop-opacity="1"/></linearGradient><filter id="master_svgj_22_244/18_294" filterUnits="objectBoundingBox" color-interpolation-filters="sRGB" x="-10" y="-16" width="59.39089012145996" height="54.12908744812012"><feFlood flood-opacity="0" result="BackgroundImageFix"/><feColorMatrix in="SourceAlpha" type="matrix" values="0 0 0 0 0 0 0 0 0 0 0 0 0 0 0 0 0 0 127 0"/><feOffset dy="0" dx="6"/><feGaussianBlur stdDeviation="4"/><feColorMatrix type="matrix" values="0 0 0 0 0 0 0 0 0 0 0 0 0 0 0 0 0 0 0.3019607961177826 0"/><feBlend mode="normal" in2="BackgroundImageFix" result="effect1_dropShadow"/><feBlend mode="normal" in="SourceGraphic" in2="effect1_dropShadow" result="shape"/></filter><linearGradient x1="0.08231649547815323" y1="0.5" x2="1.2282472848892212" y2="0.4924805462360382" id="master_svgk_18_02154"><stop offset="0%" stop-color="#FF5100" stop-opacity="1"/><stop offset="57.85714387893677%" stop-color="#DEE21A" stop-opacity="0.8299999833106995"/><stop offset="100%" stop-color="#DEE21A" stop-opacity="0"/></linearGradient><linearGradient x1="0.0303295087069273" y1="0.3787258267402649" x2="1.0298089981079102" y2="0.5193765759468079" id="master_svgl_18_02664"><stop offset="0%" stop-color="#FF5100" stop-opacity="1"/><stop offset="58.57146978378296%" stop-color="#DEE21A" stop-opacity="0.8500000238418579"/><stop offset="99.99995231628418%" stop-color="#DEE21A" stop-opacity="0"/></linearGradient><linearGradient x1="0" y1="0.5" x2="1.2398574352264404" y2="0.5649569630622864" id="master_svgm_18_04472"><stop offset="0%" stop-color="#FF5100" stop-opacity="1"/><stop offset="32.857152819633484%" stop-color="#DEE21A" stop-opacity="0.8700000047683716"/><stop offset="40.30964970588684%" stop-color="#DEE21A" stop-opacity="0.8667138814926147"/><stop offset="100.00004768371582%" stop-color="#DEE21A" stop-opacity="0"/></linearGradient><linearGradient x1="0.06258756667375565" y1="0.465004026889801" x2="1.1322928667068481" y2="0.6600136756896973" id="master_svgn_18_03392"><stop offset="0%" stop-color="#FF5100" stop-opacity="1"/><stop offset="38.296544551849365%" stop-color="#DEE21A" stop-opacity="0.8399999737739563"/><stop offset="99.99997615814209%" stop-color="#DEE21A" stop-opacity="0"/></linearGradient></defs><g style="mix-blend-mode:passthrough"><g style="mix-blend-mode:passthrough"><g transform="matrix(-1,0,0,1,188.56129837036133,0)" filter="url(#master_svg0_22_244/18_182)"><path d="M159.70784918518066,38.8660888671875L159.70784918518066,44.1519188671875C159.70784918518066,69.59528886718749,142.16574918518066,81.15268886718749,120.52934918518066,81.15268886718749L114.31954918518066,81.15268886718749C115.01174918518066,73.1922888671875,118.07414918518066,68.3741888671875,126.06654918518066,62.6496888671875C129.99754918518067,59.834988867187505,129.66444918518067,58.2095888671875,127.72844918518066,59.142488867187495C114.39464918518067,65.5647888671875,107.92204918518067,73.90058886718751,107.62824918518066,87.7599888671875Q105.91064918518066,94.0368888671875,102.40928918518067,99.6530888671875Q98.90792918518066,105.2692888671875,94.28064918518066,110.2247888671875L95.06331118518067,98.3316888671875C95.06331118518067,96.5304888671875,97.84680918518066,94.2037888671875,99.54621918518066,90.4028888671875C101.24562918518066,86.60208886718749,101.86093918518067,81.3271888671875,102.23639918518066,79.83128886718751C101.48547918518067,76.4112888671875,100.94008918518067,71.1571888671875,100.94008918518067,65.2951888671875C100.94008918518067,50.698388867187504,115.55694918518066,38.8660888671875,133.58884918518066,38.8660888671875C140.11864918518066,38.8660888671875,146.64834918518068,41.5089988671875,159.70784918518066,38.8660888671875Z" fill="url(#master_svg1_11_03068)" fill-opacity="1"/></g><g style="mix-blend-mode:passthrough"><path d="M143.44914129257202,143.06289067382812Q132.68264129257201,134.9657906738281,126.22744129257202,132.88749067382813Q115.12164129257202,129.37371067382813,100.54324129257202,126.23004067382813L101.38634129257203,122.31991867382813L101.15914129257202,126.31346067382813Q86.23584129257202,125.46420067382813,69.38784129257202,126.31483067382813L69.18614129257202,122.31991867382813L69.86414129257201,126.26204067382812Q51.92464129257202,129.34746067382812,35.48783129257202,136.35489067382812L32.350451292572025,128.99577067382813Q49.64724129257202,121.62168667382812,68.50814129257202,118.37780067382812L68.74464129257203,118.33711067382812L68.98444129257203,118.32501067382813Q86.26144129257202,117.45272067382813,101.61364129257203,118.32638067382813L101.92484129257203,118.34409067382812L102.22954129257202,118.40979067382813Q117.17594129257202,121.63280067382813,128.679141292572,125.27242067382812Q136.415141292572,127.76315067382812,148.25814129257202,136.66929067382813L143.44914129257202,143.06289067382812Z" fill="url(#master_svg2_11_03143)" fill-opacity="1"/></g></g><g><path d="M133.85341835021973,74.8660888671875L133.85341835021973,79.3422788671875C132.06171835021973,90.5327888671875,130.08281835021972,97.9259888671875,124.89511835021972,103.0660888671875C119.70731835021972,108.2061888671875,112.35341835021973,109.3327888671875,105.18671835021972,110.6755888671875L100.64308835021973,110.6755888671875C101.14951835021972,103.9344888671875,103.39031835021973,99.8543888671875,109.23831835021973,95.0066888671875C112.11451835021973,92.6230888671875,111.87081835021972,91.2466888671875,110.45421835021972,92.0367888671875C100.69802835021973,97.4752888671875,95.85335835021972,104.8251888671875,95.63835835021973,116.5617888671875L95.63119835021973,121.8660888671875L93.24230835021973,121.8660888671875L90.85341835021973,121.8660888671875C90.85341835021973,118.8155888671875,91.13052935021973,111.5708888671875,91.67997335021973,109.0372888671875C91.13052935021973,106.1411888671875,90.85341835021973,102.2111888671875,90.85341835021973,97.2470888671875C90.85341835021973,84.8860888671875,101.54851835021972,74.8660888671875,114.74231835021973,74.8660888671875C119.52011835021972,74.8660888671875,124.29781835021973,77.1041888671875,133.85341835021973,74.8660888671875Z" fill="url(#master_svg3_13_4130)" fill-opacity="1"/></g><g style="mix-blend-mode:passthrough" transform="matrix(0.38623765110969543,0.9223992824554443,-0.8871843814849854,0.4614151418209076,116.7907157514748,-74.73214663827957)" filter="url(#master_svg4_22_244/18_189)"><line x1="112.45778846740723" y1="52.3426513671875" x2="130.62762069702148" y2="52.3426513671875" fill-opacity="0" stroke-opacity="1" stroke="#DEE21A" fill="none" stroke-width="3"/></g><g style="mix-blend-mode:passthrough" transform="matrix(-0.38619428873062134,0.9224174618721008,-0.8872092962265015,-0.4613671600818634,237.0103837653529,-47.2428449661212)" filter="url(#master_svg5_22_244/18_194)"><line x1="136.51815223693848" y1="52.3426513671875" x2="154.68850898742676" y2="52.3426513671875" fill-opacity="0" stroke-opacity="1" stroke="#DEE21A" fill="none" stroke-width="3"/></g><g style="mix-blend-mode:passthrough" transform="matrix(-0.9856173396110535,0.16899223625659943,-0.13674679398536682,-0.9905720949172974,320.7885567552943,138.49113817640384)" filter="url(#master_svg6_22_244/18_195)"><path d="M168.88611835021973,85.90165638183593L155.67225135021974,84.29393638183593L156.03458535021971,81.31589638183594L169.24841835021974,82.92361338183593L168.88611835021973,85.90165638183593Z" fill="#DEE21A" fill-opacity="1"/></g><g style="mix-blend-mode:passthrough" transform="matrix(0.8434766530990601,-0.5371658802032471,0.4562564492225647,0.8898482918739319,-11.236426712725233,83.51023263541902)" filter="url(#master_svg7_22_244/18_191)"><line x1="140.52846717834473" y1="71.3371353149414" x2="157.16876029968262" y2="71.3371353149414" fill-opacity="0" stroke-opacity="1" stroke="#DEE21A" fill="none" stroke-width="3"/></g><g style="mix-blend-mode:passthrough" transform="matrix(0.9813133478164673,-0.19241629540920258,0.1916678100824356,0.9814598560333252,-9.666964353629965,2.0719648927941705)" filter="url(#master_svg8_22_244/18_202)"><line x1="5.853418350219727" y1="49.5067138671875" x2="18.536612510681152" y2="49.5067138671875" fill-opacity="0" stroke-opacity="1" stroke="#DEE21A" fill="none" stroke-width="3"/></g><g style="mix-blend-mode:passthrough" transform="matrix(0.8245184421539307,0.5658349394798279,-0.5642783641815186,0.8255845904350281,19.269547795244307,-0.013375853753245792)" filter="url(#master_svg9_22_244/18_201)"><line x1="9.627038955688477" y1="29.655155181884766" x2="26.739023208618164" y2="29.655155181884766" fill-opacity="0" stroke-opacity="1" stroke="#DEE21A" fill="none" stroke-width="3"/></g><g style="mix-blend-mode:passthrough" transform="matrix(-0.415174663066864,0.9097417593002319,-0.9091051816940308,-0.41656655073165894,88.29734994051489,-5.3530423921778265)" filter="url(#master_svga_22_244/18_203)"><path d="M58.145940811157224,28.543808591918946L45.72555081115723,27.182798591918946L46.052330811157226,24.200658591918945L58.47264081115723,25.561661591918945L58.145940811157224,28.543808591918946Z" fill="#DEE21A" fill-opacity="1"/></g><g style="mix-blend-mode:passthrough" transform="matrix(-0.23254255950450897,-0.9725862145423889,0.9723725318908691,-0.23343434929847717,5.873746218218201,71.13626544217777)" filter="url(#master_svgb_22_244/18_204)"><line x1="30.988061904907227" y1="31.738658905029297" x2="45.76572227478027" y2="31.738658905029297" fill-opacity="0" stroke-opacity="1" stroke="#DEE21A" fill="none" stroke-width="3"/></g><g style="mix-blend-mode:passthrough" transform="matrix(0.8973509669303894,-0.441317617893219,0.43988069891929626,0.8980562090873718,-12.231495994439229,42.30525239009728)"><ellipse cx="92.885498046875" cy="55.64183521270752" rx="8.022069931030273" ry="8.03200626373291" fill="url(#master_svgc_18_04790)" fill-opacity="1"/></g><g style="mix-blend-mode:passthrough" transform="matrix(0.8973509669303894,-0.4413175880908966,0.4398806691169739,0.8980562090873718,-7.7277554381904565,45.80216148062806)" filter="url(#master_svgd_22_244/18_262)"><path d="M94.62606239318848,57.31805602416992Q114.31066239318848,65.48135602416993,119.88896239318848,60.343456024169924C121.25236239318848,59.08775602416992,121.82206239318847,56.56935602416992,119.30146239318847,55.20035602416992C116.85046239318848,53.869156024169925,116.85146239318848,52.87585602416992,116.85346239318848,51.02375602416992C116.85346239318848,50.97125602416992,116.85356239318847,50.91805602416992,116.85356239318847,50.864056024169926C116.85356239318847,48.84722602416992,118.02856239318848,48.24215602416992,120.16936239318848,44.94936602416992C121.20566239318848,43.35546602416992,121.33946239318848,41.70621602416992,119.88896239318848,40.77971602416992Q114.08736239318847,37.07369602416992,96.68235239318848,45.51937602416992Q97.22702239318848,46.18145602416992,97.66153239318848,47.132876024169924Q98.05320239318847,48.44122602416992,98.05320239318847,50.864056024169926Q98.05320239318847,52.17505602416992,97.75945239318848,53.38515602416992Q97.56361239318848,53.99025602416992,97.17194239318847,54.595356024169924C96.40380239318847,55.78195602416992,96.48651239318848,55.80545602416992,94.62606239318848,57.31805602416992Z" fill="url(#master_svge_18_06567)" fill-opacity="1"/></g><g style="mix-blend-mode:passthrough" transform="matrix(-0.4557592272758484,-0.8901031017303467,0.8892248272895813,-0.4574704170227051,76.18963632126736,151.93391438813114)" filter="url(#master_svgf_22_244/18_271)"><path d="M84.49306678771973,69.78442035522461Q104.33746678771973,77.70382035522461,109.96106678771973,72.71942035522461C111.33546678771972,71.5012203552246,111.90986678771972,69.05802035522461,109.36886678771972,67.73002035522461C106.89786678771972,66.43852035522461,106.89896678771973,65.47492035522461,106.90086678771974,63.67812035522461C106.90096678771972,63.627120355224605,106.90096678771972,63.57552035522461,106.90096678771972,63.52322035522461C106.90096678771972,61.56657035522461,108.08556678771973,60.97958035522461,110.24376678771972,57.78514035522461C111.28846678771973,56.23884035522461,111.42326678771973,54.63885035522461,109.96106678771973,53.74002035522461Q104.11236678771972,50.14470035522461,86.56604678771973,58.33812035522461Q87.11513678771972,58.98042035522461,87.55317678771972,59.90343035522461Q87.94803678771973,61.172700355224606,87.94803678771973,63.52322035522461Q87.94803678771973,64.79502035522461,87.65189678771972,65.96902035522461Q87.45446678771972,66.5560203552246,87.05961678771973,67.1430203552246C86.28524678771973,68.29422035522461,86.36861678771973,68.31702035522461,84.49306678771973,69.78442035522461Z" fill="url(#master_svgg_18_05916)" fill-opacity="1"/></g><g style="mix-blend-mode:passthrough" transform="matrix(0.4393422603607178,0.8983197808265686,-0.8976160287857056,0.44077831506729126,104.95610286628471,-67.30182466233362)" filter="url(#master_svgh_22_244/18_274)"><path d="M106.35527350130722,67.1464258972168Q127.03574940490722,75.5702258972168,132.78344940490723,70.5833258972168C134.18814940490722,69.3645258972168,134.7751494049072,66.92012589721679,132.17804940490723,65.59132589721679C129.65264940490724,64.2992258972168,129.65364940490724,63.3351258972168,129.65564940490722,61.537525897216796C129.65574940490723,61.486525897216794,129.65574940490723,61.4348258972168,129.65574940490723,61.382525897216794C129.65574940490723,59.4248658972168,130.86644940490723,58.837575897216794,133.07234940490721,55.641525897216795C134.14004940490722,54.0944558972168,134.27794940490722,52.4936558972168,132.78344940490723,51.5943758972168Q126.80554940490723,47.9972458972168,108.87201940490722,56.194785897216796Q109.43322940490722,56.8374158972168,109.88093940490722,57.760885897216795Q110.11186940490722,58.8305758972168,110.11186940490722,61.182225897216796Q110.11186940490722,62.4547258972168,109.70857940490723,63.134225897216794Q109.25020940490722,64.2033258972168,108.84663940490722,64.7906258972168C108.05517940490722,65.94232589721679,108.27221940490723,65.67822589721679,106.35527350130722,67.1464258972168Z" fill="url(#master_svgi_18_07014)" fill-opacity="1"/></g><g style="mix-blend-mode:passthrough" transform="matrix(-0.814810037612915,0.5797280073165894,-0.5761687755584717,-0.8173307180404663,214.3008689735093,55.19532976764208)" filter="url(#master_svgj_22_244/18_294)"><path d="M98.46940903829473,78.57565571289062Q118.97368514709473,87.07185571289062,124.67248514709473,82.04205571289063C126.06528514709473,80.81275571289062,126.64728514709472,78.34735571289062,124.07228514709473,77.00715571289062C121.56838514709473,75.70395571289063,121.56938514709472,74.73155571289062,121.57138514709473,72.91845571289062C121.57138514709473,72.86705571289062,121.57148514709473,72.81495571289062,121.57148514709473,72.76215571289063C121.57148514709473,70.78765571289063,122.77188514709472,70.19531571289062,124.95888514709472,66.97179571289062C126.01758514709474,65.41141571289063,126.15418514709472,63.796855712890626,124.67248514709473,62.88983571289062Q118.74558514709473,59.261775712890625,100.96472514709473,67.52980571289062Q101.52115514709473,68.17795571289062,101.96504514709473,69.10936571289062Q102.19400514709473,70.18826571289063,102.19400514709473,72.56015571289062Q102.19400514709473,73.84355571289062,101.79415514709473,74.52895571289062Q101.33969514709473,75.60715571289063,100.93956514709473,76.19955571289063C100.15483514709473,77.36115571289062,100.37003514709473,77.09485571289062,98.46940903829473,78.57565571289062Z" fill="#FF5100" fill-opacity="1"/></g><g style="mix-blend-mode:passthrough" transform="matrix(0.8973509669303894,-0.4413175880908966,0.43988069891929626,0.8980562090873718,-10.163046195317406,48.894288779751435)"><path d="M100.06081581115723,53.443241345214844Q103.61985581115722,54.583711345214844,109.45420581115722,53.443241345214844C112.51661581115722,52.84462134521485,113.25461581115722,51.53221134521485,113.27351581115722,50.68309134521484C113.29151581115723,49.87339134521484,111.63151581115723,47.883271345214844,108.83486581115723,47.179825345214844Q103.78698581115722,45.91012934521484,101.09305581115723,46.86134934521484C101.03004581115722,46.982472345214845,101.03434581115722,47.03095334521485,101.05312981115722,47.242727345214846C101.06511581115723,47.377881345214846,101.08300581115722,47.57954134521484,101.09305581115723,47.90905134521484C101.10028581115722,48.14582134521484,101.11154581115723,48.31297134521484,101.12176581115723,48.46454134521484C101.14805581115722,48.854401345214846,101.16738581115723,49.14116134521484,101.09305581115723,50.24456134521484C100.98983281115723,51.77693134521484,100.93822081115722,51.83348134521484,100.57693581115723,52.58007134521485C100.21565181115723,53.326661345214845,100.37048781115723,53.21703134521484,100.06081581115723,53.443241345214844Z" fill="url(#master_svgk_18_02154)" fill-opacity="1"/></g><g style="mix-blend-mode:passthrough" transform="matrix(-0.5109713077545166,-0.8595978021621704,0.8580411076545715,-0.5135810375213623,96.23479820263424,149.2597185581228)"><path d="M90.50283241271973,53.65616963500977Q93.90503241271972,54.707199635009765,99.48226241271973,53.65616963500977C102.40973241271973,53.10448963500976,103.11513241271973,51.895009635009764,103.13323241271972,51.11246963500977C103.15043241271972,50.366269635009765,101.56363241271973,48.53221963500977,98.89021241271973,47.88393063500977Q94.06479241271973,46.71380363500977,91.48958341271972,47.590428635009765C91.42934941271973,47.70205363500977,91.43346041271973,47.746732635009764,91.45141541271973,47.941898635009764C91.46287441271973,48.06645463500976,91.47997341271973,48.252309635009766,91.48958341271972,48.55596963500977C91.49648941271973,48.774179635009766,91.50726241271973,48.92821963500977,91.51703241271973,49.067899635009766C91.54215241271973,49.427179635009765,91.56063241271973,49.691459635009764,91.48958341271972,50.70832963500977C91.39090841271972,52.12052963500977,91.34157041271973,52.17264963500976,90.99620841271972,52.86068963500976C90.65084541271973,53.548729635009764,90.79885741271973,53.44769963500977,90.50283241271973,53.65616963500977Z" fill="url(#master_svgl_18_02664)" fill-opacity="1"/></g><g style="mix-blend-mode:passthrough" transform="matrix(-0.8274998068809509,0.5614660382270813,-0.5581507086753845,-0.8297395706176758,201.16067064382685,54.14040383097097)"><path d="M92.37948036193848,65.4312121850586Q95.24635036193848,65.49180218505859,100.77690036193847,64.43189218505859C103.67988036193847,63.87556218505859,104.37938036193847,62.655862185058595,104.39728036193847,61.866712185058596C104.41438036193847,61.11421218505859,102.84088036193847,59.26467218505859,100.18980036193848,58.610912185058595Q95.40478036193848,57.430904185058594,92.85112036193847,58.314932185058595C92.81277336193848,58.38720118505859,92.85632936193848,58.444491185058595,92.92495436193848,58.53475618505859C93.03143836193847,58.67481818505859,93.19828136193847,58.894273185058594,93.21315636193847,59.37227218505859C93.22212636193848,59.6605021850586,93.25580136193848,59.846812185058596,93.29022436193847,60.037262185058594C93.34967936193847,60.3662021850586,93.41137036193848,60.707502185058594,93.35185636193847,61.607642185058594C93.26050436193847,62.98935218505859,93.23652036193847,63.16718218505859,92.99839536193848,63.83111218505859C92.76027036193848,64.4950521850586,92.69235336193847,64.9130321850586,92.37948036193848,65.4312121850586Z" fill="url(#master_svgm_18_04472)" fill-opacity="1"/></g><g style="mix-blend-mode:passthrough" transform="matrix(0.5744920372962952,0.818510115146637,-0.8160160779953003,0.5780290961265564,88.29950063020794,-59.319201040388066)"><path d="M101.08358192443848,61.941155047607424Q104.48500192443848,62.99243504760742,110.06096192443847,61.941155047607424C112.98778192443848,61.38934504760742,113.69308192443847,60.17958504760742,113.71108192443847,59.39686504760742C113.72838192443848,58.65048504760742,112.14188192443848,56.81600504760742,109.46905192443847,56.167571047607424Q104.64473192443847,54.99717204760742,102.07010792443847,55.87400204760742C102.00988792443847,55.985652047607424,102.01399692443847,56.03034204760742,102.03194792443847,56.22555304760742C102.04340492443848,56.35013804760742,102.06049892443848,56.53603504760742,102.07010792443847,56.83976504760742C102.07701192443848,57.05802504760742,102.08778192443847,57.21209504760742,102.09755192443848,57.351815047607424C102.12266192443848,57.71118504760742,102.14114192443847,57.97552504760742,102.07010792443847,58.99262504760742C101.97145492443848,60.40515504760742,101.92212892443848,60.45728504760742,101.57684492443848,61.14548504760742C101.23156092443848,61.83369504760742,101.37953992443848,61.732635047607424,101.08358192443848,61.941155047607424Z" fill="url(#master_svgn_18_03392)" fill-opacity="1"/></g></g></svg>