<svg xmlns="http://www.w3.org/2000/svg" xmlns:xlink="http://www.w3.org/1999/xlink" fill="none" version="1.1" width="197.23440551757812" height="148.104248046875" viewBox="0 0 197.23440551757812 148.104248046875"><defs><filter id="master_svg0_34_5332" filterUnits="objectBoundingBox" color-interpolation-filters="sRGB" x="0" y="0" width="65.83106994628906" height="76.87666320800781"><feFlood flood-opacity="0" result="BackgroundImageFix"/><feBlend mode="normal" in="SourceGraphic" in2="BackgroundImageFix" result="shape"/><feGaussianBlur in="BackgroundImage" stdDeviation="5"/><feComposite in2="SourceAlpha" operator="in" result="effect1_foregroundBlur"/><feBlend mode="normal" in="SourceGraphic" in2="effect1_foregroundBlur" result="shape"/></filter><filter id="master_svg1_34_5334" filterUnits="objectBoundingBox" color-interpolation-filters="sRGB" x="-12" y="-16" width="105.83106994628906" height="116.87666320800781"><feFlood flood-opacity="0" result="BackgroundImageFix"/><feColorMatrix in="SourceAlpha" type="matrix" values="0 0 0 0 0 0 0 0 0 0 0 0 0 0 0 0 0 0 127 0"/><feOffset dy="4" dx="8"/><feGaussianBlur stdDeviation="5"/><feColorMatrix type="matrix" values="0 0 0 0 0 0 0 0 0 0 0 0 0 0 0 0 0 0 0.3019607961177826 0"/><feBlend mode="normal" in2="BackgroundImageFix" result="effect1_dropShadow"/><feBlend mode="normal" in="SourceGraphic" in2="effect1_dropShadow" result="shape"/></filter><linearGradient x1="0.7682770490646362" y1="0.1499810516834259" x2="-1.254136085510254" y2="1.8260393142700195" id="master_svg2_13_4686"><stop offset="0%" stop-color="#75CE58" stop-opacity="1"/><stop offset="100.00002384185791%" stop-color="#4A0D23" stop-opacity="1"/><stop offset="100.00002384185791%" stop-color="#75CE58" stop-opacity="0"/></linearGradient><linearGradient x1="0.4966343343257904" y1="-0.8716837763786316" x2="0.5" y2="0.750457227230072" id="master_svg3_34_2040"><stop offset="0%" stop-color="#617440" stop-opacity="1"/><stop offset="73.57131838798523%" stop-color="#4F272A" stop-opacity="1"/></linearGradient><linearGradient x1="0.5" y1="0.32306942343711853" x2="-0.34496769309043884" y2="1.583755612373352" id="master_svg4_34_2983"><stop offset="0%" stop-color="#75CE58" stop-opacity="1"/><stop offset="81.62761330604553%" stop-color="#4A0D23" stop-opacity="1"/></linearGradient><filter id="master_svg5_34_5335" filterUnits="objectBoundingBox" color-interpolation-filters="sRGB" x="-14" y="-16" width="97.95007705688477" height="80.1591796875"><feFlood flood-opacity="0" result="BackgroundImageFix"/><feColorMatrix in="SourceAlpha" type="matrix" values="0 0 0 0 0 0 0 0 0 0 0 0 0 0 0 0 0 0 127 0"/><feOffset dy="4" dx="6"/><feGaussianBlur stdDeviation="5"/><feColorMatrix type="matrix" values="0 0 0 0 0 0 0 0 0 0 0 0 0 0 0 0 0 0 0.3019607961177826 0"/><feBlend mode="normal" in2="BackgroundImageFix" result="effect1_dropShadow"/><feBlend mode="normal" in="SourceGraphic" in2="effect1_dropShadow" result="shape"/><feGaussianBlur in="BackgroundImage" stdDeviation="1.5"/><feComposite in2="SourceAlpha" operator="in" result="effect2_foregroundBlur"/><feBlend mode="normal" in="SourceGraphic" in2="effect2_foregroundBlur" result="shape"/></filter></defs><g style="mix-blend-mode:passthrough"><g style="mix-blend-mode:passthrough" transform="matrix(0.9866649508476257,-0.16276448965072632,0.15333928167819977,0.9881736040115356,-3.1594101784918394,4.236949607358952)" filter="url(#master_svg0_34_5332)"><g transform="matrix(-1,0,0,1,180.4222068786621,0)" filter="url(#master_svg1_34_5334)"><path d="M156.04220343933105,22.7242431640625L156.04220343933105,28.4188131640625C156.04220343933105,55.8296431640625,138.39170343933105,68.2807431640625,116.62180343933105,68.2807431640625L110.37370343933105,68.2807431640625C111.07010343933106,59.7047431640625,114.15150343933105,54.5141431640625,122.19320343933106,48.346943164062495C126.14840343933105,45.3146431640625,125.81330343933107,43.5635431640625,123.86530343933106,44.5686431640625C110.44920343933106,51.4875431640625,103.93670343933105,60.4678431640625,103.64110343933106,75.3989431640625Q101.91290343933106,82.1613431640625,98.38991343933105,88.2117431640625Q94.86694343933105,94.2622431640625,90.21110343933105,99.6009431640625L90.99859643933105,86.7881431640625C90.99859643933105,84.8477431640625,93.79928343933105,82.3410431640625,95.50917343933105,78.24624316406249C97.21907343933105,74.1515431640625,97.83817343933106,68.4687431640625,98.21595343933106,66.8571431640625C97.46039343933106,63.1727431640625,96.91164343933106,57.5123431640625,96.91164343933106,51.1970431640625C96.91164343933106,35.471543164062496,111.61870343933106,22.7242431640625,129.76190343933106,22.7242431640625C136.33200343933106,22.7242431640625,142.90200343933105,25.5715231640625,156.04220343933105,22.7242431640625Z" fill="url(#master_svg2_13_4686)" fill-opacity="1"/></g></g><g style="mix-blend-mode:passthrough"><path d="M39.38003349304199,137.21734619140625C51.462733493041995,138.54894619140626,52.99833349304199,138.12094619140626,60.106633493042,136.13974619140626C62.42133349304199,135.49464619140625,65.32693349304199,134.68474619140625,69.38003349304199,133.71734619140625C85.88003349304199,129.77904619140625,89.12803349304198,129.21734619140625,105.38003349304199,129.21734619140625C108.24643349304199,129.21734619140625,110.845533493042,129.19184619140626,113.27073349304199,129.16804619140626C124.59563349304199,129.05694619140624,132.127733493042,128.98304619140626,145.380033493042,131.71734619140625C161.470033493042,135.03724619140624,158.423033493042,135.19774619140625,174.380033493042,135.71734619140625Q173.212033493042,127.49539619140626,149.392033493042,123.18067619140625C147.981033493042,122.92497619140624,145.87103349304198,122.33722619140624,143.41203349304197,121.65218619140624C135.497033493042,119.44739619140626,123.96503349304199,116.23487619140624,120.45323349304199,119.84204619140625C116.42653349304199,123.97814619140625,111.13903349304199,125.68466619140625,106.432433493042,125.68466619140625C101.626633493042,125.68466619140625,97.653233493042,123.99516619140626,92.772333493042,121.09396619140625C88.046233493042,118.28476919140626,80.932733493042,120.11073619140625,73.53533349304199,122.00954619140624C73.09823349304199,122.12174619140625,72.660133493042,122.23420619140624,72.22143349304199,122.34597619140625Q40.77264349304199,130.35904619140626,39.38003349304199,137.21734619140625Z" fill="url(#master_svg3_34_2040)" fill-opacity="1"/></g><g transform="matrix(0.9866649508476257,-0.16276448965072632,0.1533392369747162,0.9881736040115356,-5.296997419430795,15.451769454495775)"><path d="M137.61658515319823,42.5313720703125L137.61658515319823,48.1000720703125C135.71128515319825,62.0217720703125,133.60688515319825,71.2195720703125,128.09008515319823,77.61417207031249C122.57338515319825,84.0087720703125,114.75308515319824,85.41037207031249,107.13188515319824,87.0809720703125L102.30008515319824,87.0809720703125C102.83868515319824,78.6944720703125,105.22148515319824,73.6186720703125,111.44038515319824,67.5877720703125C114.49898515319825,64.62237207031251,114.23988515319824,62.9099720703125,112.73348515319825,63.8928720703125C102.35848515319825,70.6588720703125,97.20659515319824,79.8026720703125,96.97795515319824,94.4037720703125L96.33230515319825,105.1890720703125L94.32192515319824,104.8559720703125L91.84298515319824,104.9673720703125C91.84298515319824,101.17237207031249,92.18424015319825,88.19467207031249,92.76853015319824,85.04277207031251C92.18424015319825,81.4398720703125,91.88955495319824,76.5505720703125,91.88955495319824,70.3748720703125C91.88955495319824,54.9968720703125,103.26288515319824,42.5313720703125,117.29348515319825,42.5313720703125C122.37428515319824,42.5313720703125,127.45498515319824,45.3157220703125,137.61658515319823,42.5313720703125Z" fill="url(#master_svg4_34_2983)" fill-opacity="1"/></g><g style="mix-blend-mode:passthrough" transform="matrix(0.5948476791381836,-0.8038384914398193,0.7926257848739624,0.6097085475921631,-41.182415322628,124.00334197308666)" filter="url(#master_svg5_34_5335)"><path d="M123.594533493042,144.95906572265625L103.380060195942,124.87946572265625L123.594533493042,104.79986572265625L123.594533493042,116.92836572265625L123.594533493042,124.87946572265625L123.594533493042,133.39846572265625L123.594533493042,144.95906572265625ZM123.594533493042,133.39846572265625L123.594533493042,116.92836572265625L155.33013349304198,116.92836572265625C158.643833493042,116.92836572265625,161.33013349304198,119.61466572265626,161.33013349304198,122.92836572265625L161.33013349304198,127.39846572265625C161.33013349304198,130.71216572265624,158.643833493042,133.39846572265625,155.33013349304198,133.39846572265625L123.594533493042,133.39846572265625Z" fill-rule="evenodd" fill="#0095FF" fill-opacity="0.44999998807907104"/></g></g></svg>