<svg xmlns="http://www.w3.org/2000/svg" xmlns:xlink="http://www.w3.org/1999/xlink" fill="none" version="1.1" width="196" height="138.32470703125" viewBox="0 0 196 138.32470703125"><defs><filter id="master_svg0_22_259/22_141" filterUnits="objectBoundingBox" color-interpolation-filters="sRGB" x="0" y="0" width="130" height="124.00001525878906"><feFlood flood-opacity="0" result="BackgroundImageFix"/><feBlend mode="normal" in="SourceGraphic" in2="BackgroundImageFix" result="shape"/><feGaussianBlur in="BackgroundImage" stdDeviation="5"/><feComposite in2="SourceAlpha" operator="in" result="effect1_foregroundBlur"/><feBlend mode="normal" in="SourceGraphic" in2="effect1_foregroundBlur" result="shape"/></filter><filter id="master_svg1_22_259/22_151" filterUnits="objectBoundingBox" color-interpolation-filters="sRGB" x="-12" y="-16" width="111" height="124"><feFlood flood-opacity="0" result="BackgroundImageFix"/><feColorMatrix in="SourceAlpha" type="matrix" values="0 0 0 0 0 0 0 0 0 0 0 0 0 0 0 0 0 0 127 0"/><feOffset dy="4" dx="8"/><feGaussianBlur stdDeviation="5"/><feColorMatrix type="matrix" values="0 0 0 0 0 0 0 0 0 0 0 0 0 0 0 0 0 0 0.3019607961177826 0"/><feBlend mode="normal" in2="BackgroundImageFix" result="effect1_dropShadow"/><feBlend mode="normal" in="SourceGraphic" in2="effect1_dropShadow" result="shape"/></filter><clipPath id="master_svg2_22_259/22_151"><rect x="102" y="35" width="71" height="84" rx="0"/></clipPath><linearGradient x1="0.6269410848617554" y1="0.28515830636024475" x2="-0.34496769309043884" y2="1.583755612373352" id="master_svg3_22_155"><stop offset="0%" stop-color="#519739" stop-opacity="1"/><stop offset="100.00008344650269%" stop-color="#4A0D23" stop-opacity="1"/></linearGradient><filter id="master_svg4_22_259/22_156" filterUnits="objectBoundingBox" color-interpolation-filters="sRGB" x="-12" y="-16" width="111" height="138"><feFlood flood-opacity="0" result="BackgroundImageFix"/><feColorMatrix in="SourceAlpha" type="matrix" values="0 0 0 0 0 0 0 0 0 0 0 0 0 0 0 0 0 0 127 0"/><feOffset dy="4" dx="8"/><feGaussianBlur stdDeviation="5"/><feColorMatrix type="matrix" values="0 0 0 0 0 0 0 0 0 0 0 0 0 0 0 0 0 0 0.3019607961177826 0"/><feBlend mode="normal" in2="BackgroundImageFix" result="effect1_dropShadow"/><feBlend mode="normal" in="SourceGraphic" in2="effect1_dropShadow" result="shape"/></filter><linearGradient x1="0.7682770490646362" y1="0.1499810516834259" x2="-1.254136085510254" y2="1.8260393142700195" id="master_svg5_22_159"><stop offset="0%" stop-color="#519739" stop-opacity="1"/><stop offset="100.00002384185791%" stop-color="#4A0D23" stop-opacity="1"/><stop offset="100.00002384185791%" stop-color="#75CE58" stop-opacity="0"/></linearGradient><linearGradient x1="0.4966343343257904" y1="-0.8716837763786316" x2="0.5021681785583496" y2="0.5" id="master_svg6_22_150"><stop offset="0%" stop-color="#617440" stop-opacity="1"/><stop offset="94.96371746063232%" stop-color="#4A0D23" stop-opacity="1"/><stop offset="100.00001192092896%" stop-color="#4A0D23" stop-opacity="0"/></linearGradient><filter id="master_svg7_22_259/22_142" filterUnits="objectBoundingBox" color-interpolation-filters="sRGB" x="-12" y="-16" width="105" height="124"><feFlood flood-opacity="0" result="BackgroundImageFix"/><feColorMatrix in="SourceAlpha" type="matrix" values="0 0 0 0 0 0 0 0 0 0 0 0 0 0 0 0 0 0 127 0"/><feOffset dy="4" dx="8"/><feGaussianBlur stdDeviation="5"/><feColorMatrix type="matrix" values="0 0 0 0 0 0 0 0 0 0 0 0 0 0 0 0 0 0 0.3019607961177826 0"/><feBlend mode="normal" in2="BackgroundImageFix" result="effect1_dropShadow"/><feBlend mode="normal" in="SourceGraphic" in2="effect1_dropShadow" result="shape"/></filter><clipPath id="master_svg8_22_259/22_142"><rect x="73" y="33" width="65" height="84" rx="0"/></clipPath><linearGradient x1="0.6269410848617554" y1="0.28515830636024475" x2="-0.34496769309043884" y2="1.583755612373352" id="master_svg9_22_146"><stop offset="0%" stop-color="#75CE58" stop-opacity="1"/><stop offset="100.00008344650269%" stop-color="#4A0D23" stop-opacity="1"/></linearGradient><filter id="master_svga_22_259/22_160" filterUnits="objectBoundingBox" color-interpolation-filters="sRGB" x="-12" y="-16" width="101" height="132"><feFlood flood-opacity="0" result="BackgroundImageFix"/><feColorMatrix in="SourceAlpha" type="matrix" values="0 0 0 0 0 0 0 0 0 0 0 0 0 0 0 0 0 0 127 0"/><feOffset dy="4" dx="8"/><feGaussianBlur stdDeviation="5"/><feColorMatrix type="matrix" values="0 0 0 0 0 0 0 0 0 0 0 0 0 0 0 0 0 0 0.3019607961177826 0"/><feBlend mode="normal" in2="BackgroundImageFix" result="effect1_dropShadow"/><feBlend mode="normal" in="SourceGraphic" in2="effect1_dropShadow" result="shape"/></filter><linearGradient x1="0.7682770490646362" y1="0.1499810516834259" x2="-1.254136085510254" y2="1.8260393142700195" id="master_svgb_22_169"><stop offset="0%" stop-color="#75CE58" stop-opacity="1"/><stop offset="100.00002384185791%" stop-color="#4A0D23" stop-opacity="1"/><stop offset="100.00002384185791%" stop-color="#75CE58" stop-opacity="0"/></linearGradient></defs><g style="mix-blend-mode:passthrough"><g style="mix-blend-mode:passthrough" filter="url(#master_svg0_22_259/22_141)"><g filter="url(#master_svg1_22_259/22_151)"><g clip-path="url(#master_svg2_22_259/22_151)"><g><path d="M172.99998549804687,44.88233947753906L172.99998549804687,51.94115947753906C170.37038549804686,69.58823947753906,167.46598549804688,81.24723947753907,159.85188549804687,89.35293947753905C152.2377854980469,97.45863947753907,141.44448549804687,99.23523947753907,130.92588549804688,101.35293947753905L124.25718549804688,101.35293947753905C125.00048549804687,90.72233947753907,128.28928549804687,84.28823947753907,136.87238549804687,76.64353947753906C141.09378549804688,72.88473947753906,140.73618549804686,70.71413947753906,138.65708549804688,71.96003947753906C124.33778549804687,80.53643947753906,117.22730549804687,92.12703947753906,116.91174549804687,110.63523947753906L116.90123549804687,119.00003947753906L113.39505549804687,119.00003947753906L109.88888549804688,119.00003947753906C109.88888549804688,114.18943947753907,110.29560149804688,102.76473947753905,111.10202549804687,98.76943947753907C110.29560149804688,94.20233947753906,109.88888549804688,88.00473947753906,109.88888549804688,80.17643947753906C109.88888549804688,60.683539477539064,125.58598549804688,44.88233947753906,144.95058549804688,44.88233947753906C151.96298549804686,44.88233947753906,158.97528549804687,48.41174947753906,172.99998549804687,44.88233947753906Z" fill="url(#master_svg3_22_155)" fill-opacity="1"/></g></g></g><g transform="matrix(-1,0,0,1,228,0)" filter="url(#master_svg4_22_259/22_156)"><path d="M185,11L185,18.25926C185,53.2017,165.96370000000002,69.0741,142.4844,69.0741L135.7457,69.0741C136.4968,58.1416,139.8201,51.5248,148.4933,43.663C152.75900000000001,39.7975,152.3977,37.5653,150.2967,38.8465C135.8272,47.6665,128.8033,59.1144,128.4845,78.1482Q126.6206,86.7685,122.82099,94.4815Q119.02141,102.1945,114,109L114.849325,92.6667C114.849325,90.1931,117.86991,86.9976,119.71407,81.7778C121.55822,76.5579,122.22594,69.31360000000001,122.63338,67.2593C121.8185,62.5625,121.22666,55.3468,121.22666,47.2963C121.22666,27.2499,137.0885,11,156.6563,11C163.7422,11,170.8282,14.62963,185,11Z" fill="url(#master_svg5_22_159)" fill-opacity="1"/></g><g style="mix-blend-mode:passthrough"><path d="M162.58849618530274,138.32471525878907Q151.53249618530273,130.92891525878906,144.86879618530273,129.02041525878906Q133.47359618530274,125.81343525878906,118.52299618530273,122.94574525878906L119.27649618530273,119.01736125878907L119.07429618530273,123.01224525878906Q103.76349618530273,122.23721525878906,86.48169618530272,123.01333525878906L86.30219618530273,119.01736125878907L86.90709618530273,122.97135525878906Q68.48269618530273,125.79006525878906,51.605816185302736,132.19011525878906L48.76917618530273,124.70991525878907Q66.43689618530274,118.00996825878906,85.69729618530273,115.06336525878906L85.90889618530274,115.03099525878906L86.12279618530273,115.02138525878907Q103.78629618530273,114.22812525878906,119.47879618530274,115.02247525878906L119.75669618530273,115.03654525878906L120.03009618530274,115.08897525878906Q135.31409618530273,118.02061925878907,147.07129618530274,121.32959525878906Q154.93949618530274,123.58298525878907,167.03649618530272,131.67531525878906L162.58849618530274,138.32471525878907Z" fill="url(#master_svg6_22_150)" fill-opacity="1"/></g></g><g style="opacity:0.800000011920929;" filter="url(#master_svg7_22_259/22_142)"><g clip-path="url(#master_svg8_22_259/22_142)"><g><path d="M138.00002900390626,42.88233947753906L138.00002900390626,49.94115947753906C135.59262900390624,67.58823947753906,132.93362900390625,79.24713947753906,125.96292900390625,87.35293947753905C118.99232900390625,95.45863947753907,109.11112900390626,97.23523947753907,99.48152900390625,99.35293947753905L93.37632900390625,99.35293947753905C94.05682900390624,88.72233947753907,97.06762900390625,82.28823947753907,104.92542900390625,74.64353947753906C108.79012900390626,70.88463947753907,108.46272900390625,68.71413947753906,106.55922900390625,69.95993947753907C93.45012900390626,78.53643947753906,86.94049900390625,90.12703947753906,86.65160900390624,108.63523947753906L86.64197900390624,116.99993947753906L83.43210900390625,116.99993947753906L80.22222900390625,116.99993947753906C80.22222900390625,112.18943947753907,80.59457500390624,100.76463947753906,81.33284900390625,96.76943947753907C80.59457500390624,92.20233947753906,80.22222900390625,86.00463947753906,80.22222900390625,78.17643947753906C80.22222900390625,58.683539477539064,94.59282900390625,42.88233947753906,112.32102900390625,42.88233947753906C118.74072900390625,42.88233947753906,125.16052900390625,46.41174947753906,138.00002900390626,42.88233947753906Z" fill="url(#master_svg9_22_146)" fill-opacity="1"/></g></g></g><g transform="matrix(-1,0,0,1,168,0)" filter="url(#master_svga_22_259/22_160)"><path d="M145,15L145,21.81481C145,54.6179,128.6448,69.5185,108.4725,69.5185L102.6829,69.5185C103.3283,59.2554,106.1835,53.0437,113.6351,45.6633C117.3,42.034400000000005,116.98949999999999,39.9388,115.1845,41.1416C102.753,49.4216,96.7184,60.1686,96.4444,78.037Q94.843,86.1296,91.5786,93.3704Q88.31417,100.6111,84,107L84.729702,91.6667C84.729702,89.3445,87.32485,86.3447,88.90927,81.4445C90.49368,76.54419999999999,91.06735,69.74340000000001,91.41741,67.81479999999999C90.7173,63.4056,90.20882,56.6317,90.20882,49.0741C90.20882,30.255000000000003,103.8366,15,120.64840000000001,15C126.7363,15,132.8242,18.40741,145,15Z" fill="url(#master_svgb_22_169)" fill-opacity="0.800000011920929"/></g></g></svg>