<svg xmlns="http://www.w3.org/2000/svg" xmlns:xlink="http://www.w3.org/1999/xlink" fill="none" version="1.1" width="180.61849975585938" height="147.01171875" viewBox="0 0 180.61849975585938 147.01171875"><defs><linearGradient x1="0.4966343343257904" y1="-0.8716837763786316" x2="0.5021681785583496" y2="0.5" id="master_svg0_13_0063"><stop offset="0%" stop-color="#617440" stop-opacity="1"/><stop offset="94.96371746063232%" stop-color="#4A0D23" stop-opacity="1"/><stop offset="100.00001192092896%" stop-color="#4A0D23" stop-opacity="0"/></linearGradient><filter id="master_svg1_22_203/15_223" filterUnits="objectBoundingBox" color-interpolation-filters="sRGB" x="-6" y="-10" width="109.00200653076172" height="110.05941009521484"><feFlood flood-opacity="0" result="BackgroundImageFix"/><feColorMatrix in="SourceAlpha" type="matrix" values="0 0 0 0 0 0 0 0 0 0 0 0 0 0 0 0 0 0 127 0"/><feOffset dy="4" dx="8"/><feGaussianBlur stdDeviation="3.5"/><feColorMatrix type="matrix" values="0 0 0 0 0 0 0 0 0 0 0 0 0 0 0 0 0 0 0.3019607961177826 0"/><feBlend mode="normal" in2="BackgroundImageFix" result="effect1_dropShadow"/><feBlend mode="normal" in="SourceGraphic" in2="effect1_dropShadow" result="shape"/></filter><linearGradient x1="0.7682770490646362" y1="0.1499810516834259" x2="-1.254136085510254" y2="1.8260393142700195" id="master_svg2_13_4686"><stop offset="0%" stop-color="#75CE58" stop-opacity="1"/><stop offset="100.00002384185791%" stop-color="#4A0D23" stop-opacity="1"/><stop offset="100.00002384185791%" stop-color="#75CE58" stop-opacity="0"/></linearGradient><linearGradient x1="0.4966343343257904" y1="-0.8716837763786316" x2="0.5021681785583496" y2="0.5" id="master_svg3_13_0063"><stop offset="0%" stop-color="#617440" stop-opacity="1"/><stop offset="94.96371746063232%" stop-color="#4A0D23" stop-opacity="1"/><stop offset="100.00001192092896%" stop-color="#4A0D23" stop-opacity="0"/></linearGradient><filter id="master_svg4_22_203/15_259" filterUnits="objectBoundingBox" color-interpolation-filters="sRGB" x="-12" y="-16" width="100.82730102539062" height="102"><feFlood flood-opacity="0" result="BackgroundImageFix"/><feColorMatrix in="SourceAlpha" type="matrix" values="0 0 0 0 0 0 0 0 0 0 0 0 0 0 0 0 0 0 127 0"/><feOffset dy="4" dx="8"/><feGaussianBlur stdDeviation="5"/><feColorMatrix type="matrix" values="0 0 0 0 0 0 0 0 0 0 0 0 0 0 0 0 0 0 0.3019607961177826 0"/><feBlend mode="normal" in2="BackgroundImageFix" result="effect1_dropShadow"/><feBlend mode="normal" in="SourceGraphic" in2="effect1_dropShadow" result="shape"/></filter><linearGradient x1="0.6269410848617554" y1="0.28515830636024475" x2="-0.34496769309043884" y2="1.583755612373352" id="master_svg5_13_4842"><stop offset="0%" stop-color="#75CE58" stop-opacity="1"/><stop offset="100.00008344650269%" stop-color="#4A0D23" stop-opacity="1"/></linearGradient><filter id="master_svg6_22_203/15_1948" filterUnits="objectBoundingBox" color-interpolation-filters="sRGB" x="-14" y="-14" width="101.15469360351562" height="101.57806015014648"><feFlood flood-opacity="0" result="BackgroundImageFix"/><feColorMatrix in="SourceAlpha" type="matrix" values="0 0 0 0 0 0 0 0 0 0 0 0 0 0 0 0 0 0 127 0"/><feOffset dy="6" dx="6"/><feGaussianBlur stdDeviation="5"/><feColorMatrix type="matrix" values="0 0 0 0 0.7254902124404907 0 0 0 0 1 0 0 0 0 0.0313725508749485 0 0 0 1 0"/><feBlend mode="normal" in2="BackgroundImageFix" result="effect1_dropShadow"/><feBlend mode="normal" in="SourceGraphic" in2="effect1_dropShadow" result="shape"/></filter><filter id="master_svg7_22_203/15_9850" filterUnits="objectBoundingBox" color-interpolation-filters="sRGB" x="-14" y="-14" width="62.03998565673828" height="62.1396541595459"><feFlood flood-opacity="0" result="BackgroundImageFix"/><feColorMatrix in="SourceAlpha" type="matrix" values="0 0 0 0 0 0 0 0 0 0 0 0 0 0 0 0 0 0 127 0"/><feOffset dy="6" dx="6"/><feGaussianBlur stdDeviation="5"/><feColorMatrix type="matrix" values="0 0 0 0 0.7254902124404907 0 0 0 0 1 0 0 0 0 0.0313725508749485 0 0 0 1 0"/><feBlend mode="normal" in2="BackgroundImageFix" result="effect1_dropShadow"/><feBlend mode="normal" in="SourceGraphic" in2="effect1_dropShadow" result="shape"/></filter><filter id="master_svg8_22_203/15_02436" filterUnits="objectBoundingBox" color-interpolation-filters="sRGB" x="-14" y="-14" width="62.934885025024414" height="62"><feFlood flood-opacity="0" result="BackgroundImageFix"/><feColorMatrix in="SourceAlpha" type="matrix" values="0 0 0 0 0 0 0 0 0 0 0 0 0 0 0 0 0 0 127 0"/><feOffset dy="6" dx="6"/><feGaussianBlur stdDeviation="5"/><feColorMatrix type="matrix" values="0 0 0 0 0.7254902124404907 0 0 0 0 1 0 0 0 0 0.0313725508749485 0 0 0 1 0"/><feBlend mode="normal" in2="BackgroundImageFix" result="effect1_dropShadow"/><feBlend mode="normal" in="SourceGraphic" in2="effect1_dropShadow" result="shape"/></filter></defs><g style="mix-blend-mode:passthrough"><g style="mix-blend-mode:passthrough"><g style="mix-blend-mode:passthrough"><path d="M158.3935816040039,147.011784765625Q146.1235816040039,138.845084765625,138.6965816040039,136.728784765625Q126.08698160400391,133.198014765625,109.55098160400391,130.042254765625L110.3007816040039,126.113165765625L110.0995816040039,130.108104765625Q93.1628816040039,129.255104765625,74.04858160400391,130.109174765625L73.8699816040039,126.113165765625L74.4718816040039,130.067614765625Q54.0704816040039,133.172984765625,35.38163160400391,140.224384765625L32.557531604003906,132.739404765625Q52.03428160400391,125.390788765625,73.2680816040039,122.158714765625L73.4786816040039,122.126664765625L73.69148160400391,122.117154765625Q93.18558160400391,121.246104765625,110.5019816040039,122.118234765625L110.7785816040039,122.132164765625L111.05068160400391,122.184074765625Q127.91868160400391,125.403189765625,140.8885816040039,129.034994765625Q149.5165816040039,131.493524765625,162.8265816040039,140.351984765625L158.3935816040039,147.011784765625Z" fill="url(#master_svg0_13_0063)" fill-opacity="1"/></g></g><g style="mix-blend-mode:passthrough"><g transform="matrix(-1,0,0,1,204.0167694091797,0)" filter="url(#master_svg1_22_203/15_223)"><path d="M183.01038470458985,31.681884765625L183.01038470458985,37.760354765625C183.01038470458985,67.019084765625,161.29238470458984,80.30968476562501,134.50548470458983,80.30968476562501L126.81748470458984,80.30968476562501C127.67438470458984,71.155484765625,131.46588470458985,65.614984765625,141.36088470458984,59.031984765625C146.22758470458984,55.795184765624995,145.81528470458983,53.926084765625,143.41828470458984,54.998884765625C126.91048470458985,62.384284765625,118.89708470458984,71.969984765625,118.53328470458985,87.907784765625Q116.40688470458984,95.12598476562499,112.07198470458984,101.584284765625Q107.73717470458985,108.042684765625,102.00838470458984,113.741284765625L102.97735670458984,100.064684765625C102.97735670458984,97.993484765625,106.42346470458985,95.31778476562499,108.52741470458984,90.94698476562499C110.63135470458984,86.576184765625,111.39313470458984,80.510284765625,111.85797470458985,78.790084765625C110.92829470458985,74.857284765625,110.25308470458984,68.815284765625,110.25308470458984,62.074284765624995C110.25308470458984,45.288584765625004,128.34948470458986,31.681884765625,150.67378470458985,31.681884765625C158.75798470458983,31.681884765625,166.84208470458984,34.721124765625,183.01038470458985,31.681884765625Z" fill="url(#master_svg2_13_4686)" fill-opacity="1"/></g><g style="mix-blend-mode:passthrough"><path d="M158.3872194213867,147.00716801757812Q146.06221942138671,138.76776801757813,138.6012194213867,136.63246801757813Q125.93741942138672,133.07056801757813,109.32951942138672,129.88701801757813L110.08251942138672,125.95854501757813L109.88051942138672,129.95343801757812Q92.87031942138671,129.09292801757812,73.67301942138673,129.95451801757812L73.49371942138671,125.95854501757813L74.09821942138672,129.91259801757812Q53.60811942138672,133.04532801757813,34.83775942138672,140.15896801757813L32.002679421386716,132.67811801757813Q51.56341942138672,125.26497601757812,72.88921942138671,122.00448801757813L73.10061942138671,121.97215801757812L73.31431942138673,121.96256801757812Q92.89311942138673,121.08384801757812,110.28461942138672,121.96365801757813L110.56241942138672,121.97770801757812L110.83561942138672,122.03006801757813Q127.77671942138672,125.27750601757812,140.8032194213867,128.9412280175781Q149.46721942138672,131.4210880175781,162.83321942138673,140.35656801757813L158.3872194213867,147.00716801757812Z" fill="url(#master_svg3_13_0063)" fill-opacity="1"/></g></g><g filter="url(#master_svg4_22_203/15_259)"><path d="M157.6185063598633,60.681884765625L157.6185063598633,66.586644765625C155.08400635986328,81.34858476562499,152.28470635986326,91.101384765625,144.94610635986328,97.881884765625C137.60760635986327,104.662384765625,127.20490635986329,106.148584765625,117.06700635986329,107.919984765625L110.63960635986328,107.919984765625C111.35600635986329,99.027384765625,114.52570635986328,93.645184765625,122.79830635986329,87.250384765625C126.86690635986328,84.106084765625,126.52220635986328,82.29038476562499,124.51830635986329,83.332584765625C110.71730635986329,90.506884765625,103.86406635986329,100.202484765625,103.55993635986329,115.684784765625L103.54979635986328,122.681884765625L100.17050635986328,122.681884765625L96.79120635986328,122.681884765625C96.79120635986328,118.657784765625,97.18320435986328,109.100884765625,97.96044635986328,105.758784765625C97.18320435986328,101.93848476562499,96.79120635986328,96.75408476562501,96.79120635986328,90.205684765625C96.79120635986328,73.899684765625,111.92030635986328,60.681884765625,130.58410635986328,60.681884765625C137.34270635986329,60.681884765625,144.1013063598633,63.634264765625,157.6185063598633,60.681884765625Z" fill="url(#master_svg5_13_4842)" fill-opacity="1"/></g><g style="mix-blend-mode:passthrough" transform="matrix(0.9969058036804199,0.07882711291313171,-0.07799414545297623,0.996936559677124,0.8028204273559822,-1.1852833290074614)" filter="url(#master_svg6_22_203/15_1948)"><path d="M15.412757873535156,40.470884765625Q30.086357873535157,41.090184765625,37.730757873535154,48.787484765625Q45.375057873535155,56.484784765625,45.99005787353516,71.259984765625Q46.605157873535155,56.484784765625,54.24945787353516,48.787484765625Q61.893857873535154,41.090184765625,76.56745787353515,40.470884765625Q61.893857873535154,39.851584765625,54.24945787353516,32.154384765625Q46.605157873535155,24.457084765624998,45.99005787353516,9.681884765625Q45.375057873535155,24.457084765624998,37.730757873535154,32.154384765625Q30.086357873535157,39.851584765625,15.412757873535156,40.470884765625Z" fill="#E5EF28" fill-opacity="0.8999999761581421"/></g><g style="mix-blend-mode:passthrough" transform="matrix(0.9695449471473694,-0.24491335451602936,0.24251319468021393,0.9701481461524963,-8.863380257975336,30.945272638551273)" filter="url(#master_svg7_22_203/15_9850)"><path d="M120.05945587158203,62.69502125244141Q125.34778587158203,62.91772125244141,128.10278587158203,65.68522125244141Q130.85775587158204,68.4526212524414,131.07945587158204,73.76492125244141Q131.30115587158204,68.4526212524414,134.05615587158204,65.68522125244141Q136.81115587158203,62.91772125244141,142.09945587158202,62.69502125244141Q136.81115587158203,62.47242125244141,134.05615587158204,59.70492125244141Q131.30115587158204,56.937471252441405,131.07945587158204,51.625221252441406Q130.85775587158204,56.937471252441405,128.10278587158203,59.70492125244141Q125.34778587158203,62.47242125244141,120.05945587158203,62.69502125244141Z" fill="#DEE21A" fill-opacity="1"/></g><g style="mix-blend-mode:passthrough" transform="matrix(1,-8.73114774924133e-11,8.73114774924133e-11,1,-6.869839808132383e-9,1.1585299830585427e-8)" filter="url(#master_svg8_22_203/15_02436)"><path d="M132.68927764892578,89.681884765625Q138.1923376489258,89.903184765625,141.0591976489258,92.653184765625Q143.92607764892577,95.403184765625,144.15667764892578,100.681884765625Q144.3873776489258,95.403184765625,147.25427764892578,92.653184765625Q150.1210776489258,89.903184765625,155.62417764892578,89.681884765625Q150.1210776489258,89.460584765625,147.25427764892578,86.710624765625Q144.3873776489258,83.960624765625,144.15667764892578,78.681884765625Q143.92607764892577,83.960624765625,141.0591976489258,86.710624765625Q138.1923376489258,89.460584765625,132.68927764892578,89.681884765625Z" fill="#E5EF28" fill-opacity="1"/></g></g></svg>