<svg xmlns="http://www.w3.org/2000/svg" xmlns:xlink="http://www.w3.org/1999/xlink" fill="none" version="1.1" width="178.4497528076172" height="185.038330078125" viewBox="0 0 178.4497528076172 185.038330078125"><defs><filter id="master_svg0_22_352/15_06936" filterUnits="objectBoundingBox" color-interpolation-filters="sRGB" x="-25" y="-6" width="34.35504627227783" height="90.54861450195312"><feFlood flood-opacity="0" result="BackgroundImageFix"/><feColorMatrix in="SourceAlpha" type="matrix" values="0 0 0 0 0 0 0 0 0 0 0 0 0 0 0 0 0 0 127 0"/><feOffset dy="6" dx="-13"/><feGaussianBlur stdDeviation="3"/><feColorMatrix type="matrix" values="0 0 0 0 0 0 0 0 0 0 0 0 0 0 0 0 0 0 0.3019607961177826 0"/><feBlend mode="normal" in2="BackgroundImageFix" result="effect1_dropShadow"/><feBlend mode="normal" in="SourceGraphic" in2="effect1_dropShadow" result="shape"/></filter><filter id="master_svg1_22_352/15_06926" filterUnits="objectBoundingBox" color-interpolation-filters="sRGB" x="-25" y="-6" width="92.6865005493164" height="96.04850006103516"><feFlood flood-opacity="0" result="BackgroundImageFix"/><feColorMatrix in="SourceAlpha" type="matrix" values="0 0 0 0 0 0 0 0 0 0 0 0 0 0 0 0 0 0 127 0"/><feOffset dy="6" dx="-13"/><feGaussianBlur stdDeviation="3"/><feColorMatrix type="matrix" values="0 0 0 0 0 0 0 0 0 0 0 0 0 0 0 0 0 0 0.3019607961177826 0"/><feBlend mode="normal" in2="BackgroundImageFix" result="effect1_dropShadow"/><feBlend mode="normal" in="SourceGraphic" in2="effect1_dropShadow" result="shape"/></filter><filter id="master_svg2_22_352/15_08177" filterUnits="objectBoundingBox" color-interpolation-filters="sRGB" x="-25" y="-6" width="56.36691474914551" height="58.65107727050781"><feFlood flood-opacity="0" result="BackgroundImageFix"/><feColorMatrix in="SourceAlpha" type="matrix" values="0 0 0 0 0 0 0 0 0 0 0 0 0 0 0 0 0 0 127 0"/><feOffset dy="6" dx="-13"/><feGaussianBlur stdDeviation="3"/><feColorMatrix type="matrix" values="0 0 0 0 0 0 0 0 0 0 0 0 0 0 0 0 0 0 0.3019607961177826 0"/><feBlend mode="normal" in2="BackgroundImageFix" result="effect1_dropShadow"/><feBlend mode="normal" in="SourceGraphic" in2="effect1_dropShadow" result="shape"/></filter><radialGradient cx="0" cy="0" r="1" gradientUnits="userSpaceOnUse" id="master_svg3_15_11707" gradientTransform="translate(63.31658876136672 129.87290643651204) rotate(96.07240012179757) scale(13.774499997882227 3.7145392512479702)"><stop offset="0%" stop-color="#A2BBCB" stop-opacity="1"/><stop offset="100%" stop-color="#6C808D" stop-opacity="1"/></radialGradient><radialGradient cx="0" cy="0" r="1" gradientUnits="userSpaceOnUse" id="master_svg4_15_12472" gradientTransform="translate(35.420842369500804 174.3761501312256) rotate(91.19389794985346) scale(31.744949658766718 -7.485213372911817)"><stop offset="0%" stop-color="#A2BBCB" stop-opacity="1"/><stop offset="100%" stop-color="#6C808D" stop-opacity="1"/></radialGradient></defs><g style="mix-blend-mode:passthrough"><g style="mix-blend-mode:passthrough" transform="matrix(-0.7404243350028992,-0.6721396446228027,0.6755807995796204,-0.7372859716415405,70.73582446989008,220.19373845673363)" filter="url(#master_svg0_22_352/15_06936)"><rect x="78.11112594604492" y="96.52536010742188" width="9.355046272277832" height="66.54861450195312" rx="0" fill="#5F0A0A" fill-opacity="1"/><rect x="79.11112594604492" y="97.52536010742188" width="7.355046272277832" height="64.54861450195312" rx="0" fill-opacity="0" stroke-opacity="1" stroke="#000000" fill="none" stroke-width="2"/></g><g style="mix-blend-mode:passthrough" transform="matrix(-0.7404243350028992,-0.6721397042274475,0.6755807399749756,-0.7372859716415405,-22.772408907770796,326.9801887452347)" filter="url(#master_svg1_22_352/15_06926)"><path d="M52.14347457885742,230.62579819335937L80.07947457885743,230.73979819335938L80.07947457885743,238.26389819335938Q83.14667457885741,240.08789819335936,85.98677457885742,240.08789819335936Q88.82677457885742,240.08789819335936,91.43957457885742,238.26389819335938L91.43957457885742,230.73979819335938L119.82997457885742,230.62579819335937Q117.62217457885743,210.81819819335936,109.16137457885742,195.1715981933594Q100.70057457885741,179.52499819335938,85.98667457885742,168.03939819335938Q69.22807457885742,179.52499819335938,60.76726457885742,195.1715981933594Q52.30645357885742,210.81819819335936,52.14347457885742,230.62579819335937Z" fill="#6C808D" fill-opacity="1"/><path d="M91.43957457885742,230.73979819335938L117.81827457885743,230.63389819335936L119.82997457885742,230.62579819335937Q119.71797457885742,229.62099819335938,119.58987457885742,228.62679819335938Q117.19297457885742,210.0243981933594,109.16137457885742,195.1715981933594Q100.70057457885741,179.52499819335938,85.98667457885742,168.03939819335938Q69.22807457885742,179.52499819335938,60.76726457885742,195.1715981933594Q52.73586257885742,210.02409819335938,52.18139167885742,228.62599819335938Q52.151746208857425,229.62049819335937,52.14347457885742,230.62579819335937L54.14347457885742,230.6339981933594L80.07947457885743,230.73979819335938L80.07947457885743,238.26389819335938Q83.14667457885741,240.08789819335936,85.98677457885742,240.08789819335936Q88.82677457885742,240.08789819335936,91.43957457885742,238.26389819335938L91.43957457885742,230.73979819335938ZM89.43957457885742,237.15749819335937L89.43957457885742,228.74779819335936L117.57407457885742,228.6348981933594Q115.20327457885742,210.54969819335938,107.40217457885743,196.1228981933594Q99.47427457885743,181.4618981933594,85.90917457885743,170.53048819335936Q70.45067457885742,181.46879819335936,62.52657457885742,196.1228981933594Q54.73231457885742,210.53679819335937,54.182074578857424,228.63409819335936L82.07947457885743,228.74799819335936L82.07947457885743,237.07689819335937Q84.13287457885743,238.08789819335936,85.98677457885742,238.08789819335936Q87.74937457885741,238.08789819335936,89.43957457885742,237.15749819335937Z" fill-rule="evenodd" fill="#000000" fill-opacity="1"/></g><g style="mix-blend-mode:passthrough" transform="matrix(-0.740424394607544,-0.6721396446228027,0.6755807399749756,-0.7372860312461853,184.8740761121653,186.67274525621542)" filter="url(#master_svg2_22_352/15_08177)"><path d="M136.61710739135742,92.34113295898437C132.1988273913574,92.34113295898437,128.61710739135742,88.75943295898438,128.61710739135742,84.34113295898437L128.61710739135742,73.64553295898438C128.61710739135742,69.69453295898438,131.81999739135742,66.49165295898437,135.77096739135743,66.49165295898437Q133.9137173913574,61.67932295898437,136.04611739135743,59.61689295898437C138.04859739135742,57.68011077898438,139.68710739135742,57.683347228984374,143.5251073913574,57.69092819098437C143.77410739135743,57.691420038984376,144.03230739135742,57.69193017898437,144.30060739135743,57.691929968984375C148.70310739135743,57.691926428984374,152.0047073913574,57.691923778984375,153.3805073913574,60.44185295898438Q154.7562073913574,63.19185295898438,152.83020739135742,66.21665295898437C156.8248073913574,66.37021295898438,159.9840073913574,69.65323295898438,159.9840073913574,73.65083295898438L159.9840073913574,84.34113295898437C159.9840073913574,88.75943295898438,156.40230739135743,92.34113295898437,151.9840073913574,92.34113295898437L136.61710739135742,92.34113295898437ZM135.22062739135743,77.63973295898438L135.22062739135743,81.18953295898437Q135.22062739135743,81.38603295898437,135.23988739135743,81.58153295898438Q135.25914739135743,81.77713295898437,135.29747739135743,81.96983295898437Q135.3358173913574,82.16263295898437,135.3928573913574,82.35063295898438Q135.4499073913574,82.53863295898438,135.5251073913574,82.72023295898438Q135.60030739135743,82.90183295898437,135.69293739135742,83.07513295898437Q135.78556739135743,83.24843295898438,135.8947473913574,83.41173295898437Q136.00391739135742,83.57513295898437,136.12857739135742,83.72703295898438Q136.25324739135743,83.87893295898438,136.39219739135743,84.01793295898437Q136.53114739135742,84.15683295898438,136.68304739135743,84.28153295898437Q136.83494739135742,84.40623295898438,136.9983373913574,84.51533295898437Q137.16172739135743,84.62453295898437,137.33503739135742,84.71713295898438Q137.50833739135743,84.80983295898437,137.68988739135742,84.88503295898437Q137.87143739135743,84.96023295898438,138.05948739135744,85.01723295898438Q138.24752739135744,85.07433295898437,138.44025739135742,85.11263295898438Q138.6330073913574,85.15093295898437,138.82850739135742,85.17023295898437Q139.02410739135743,85.18953295898437,139.22060739135742,85.18953295898437L149.38040739135744,85.18953295898437Q149.57690739135742,85.18953295898437,149.7725073913574,85.17023295898437Q149.96800739135742,85.15093295898437,150.16080739135742,85.11263295898438Q150.35350739135743,85.07433295898437,150.5415073913574,85.01723295898438Q150.72960739135743,84.96023295898438,150.91110739135743,84.88503295898437Q151.0927073913574,84.80983295898437,151.26600739135742,84.71723295898437Q151.43930739135743,84.62453295898437,151.60270739135743,84.51533295898437Q151.76610739135742,84.40623295898438,151.91800739135743,84.28153295898437Q152.06990739135742,84.15683295898438,152.20880739135742,84.01793295898437Q152.34780739135743,83.87893295898438,152.47240739135742,83.72703295898438Q152.5971073913574,83.57513295898437,152.70630739135743,83.41173295898437Q152.81550739135741,83.24843295898438,152.90810739135742,83.07513295898437Q153.00070739135742,82.90183295898437,153.07590739135742,82.72023295898438Q153.1511073913574,82.53863295898438,153.20820739135743,82.35063295898438Q153.26520739135742,82.16263295898437,153.3035073913574,81.96983295898437Q153.3419073913574,81.77713295898437,153.36110739135742,81.58153295898438Q153.38040739135744,81.38603295898437,153.38040739135744,81.18953295898437L153.38040739135744,77.63973295898438Q153.38040739135744,77.44323295898437,153.36110739135742,77.24763295898438Q153.3419073913574,77.05213295898437,153.3035073913574,76.85933295898437Q153.26520739135742,76.66663295898438,153.20820739135743,76.47863295898438Q153.1511073913574,76.29053295898437,153.07590739135742,76.10903295898437Q153.00070739135742,75.92743295898438,152.90810739135742,75.75413295898437Q152.81550739135741,75.58083295898437,152.70630739135743,75.41743295898438Q152.5971073913574,75.25403295898437,152.47240739135742,75.10213295898437Q152.34780739135743,74.95023295898437,152.20880739135742,74.81133295898438Q152.06990739135742,74.67233295898437,151.91800739135743,74.54773295898437Q151.76610739135742,74.42303295898438,151.60270739135743,74.31383295898438Q151.43930739135743,74.20473295898438,151.26600739135742,74.11203295898437Q151.0927073913574,74.01943295898437,150.91110739135743,73.94423295898437Q150.72960739135743,73.86903295898438,150.5415073913574,73.81193295898437Q150.35350739135743,73.75493295898437,150.16080739135742,73.71663295898438Q149.96800739135742,73.67823295898438,149.7725073913574,73.65903295898437Q149.57690739135742,73.63973295898438,149.38040739135744,73.63973295898438L139.22060739135742,73.63973295898438Q139.02410739135743,73.63973295898438,138.82850739135742,73.65903295898437Q138.6330073913574,73.67823295898438,138.44025739135742,73.71663295898438Q138.24752739135744,73.75493295898437,138.05948739135744,73.81193295898437Q137.87143739135743,73.86903295898438,137.68988739135742,73.94423295898437Q137.50833739135743,74.01943295898437,137.33503739135742,74.11203295898437Q137.16172739135743,74.20473295898438,136.9983373913574,74.31383295898438Q136.83494739135742,74.42303295898438,136.68304739135743,74.54773295898437Q136.53114739135742,74.67233295898437,136.39219739135743,74.81133295898438Q136.25324739135743,74.95023295898437,136.12857739135742,75.10213295898437Q136.00391739135742,75.25403295898437,135.8947473913574,75.41743295898438Q135.78556739135743,75.58083295898437,135.69293739135742,75.75413295898437Q135.60030739135743,75.92743295898438,135.5251073913574,76.10903295898437Q135.4499073913574,76.29053295898437,135.3928573913574,76.47863295898438Q135.3358173913574,76.66663295898438,135.29747739135743,76.85933295898437Q135.25914739135743,77.05213295898437,135.23988739135743,77.24763295898438Q135.22062739135743,77.44323295898437,135.22062739135743,77.63973295898438Z" fill-rule="evenodd" fill="#3B0707" fill-opacity="1"/><path d="M135.14798739135742,64.51212295898438Q135.36342739135742,65.43568295898437,135.77096739135743,66.49165295898437C135.06725739135743,66.49165295898437,134.38727739135743,66.59325295898438,133.74490739135743,66.78260295898437C130.7806673913574,67.65632295898438,128.61710739135742,70.39823295898438,128.61710739135742,73.64553295898438L128.61710739135742,84.34113295898437C128.61710739135742,88.75943295898438,132.1988273913574,92.34113295898437,136.61710739135742,92.34113295898437L151.9840073913574,92.34113295898437C156.40230739135743,92.34113295898437,159.9840073913574,88.75943295898438,159.9840073913574,84.34113295898437L159.9840073913574,73.65083295898438C159.9840073913574,70.38453295898438,157.87500739135743,67.59537295898437,154.92450739135742,66.60038295898437C154.26380739135743,66.37758295898438,153.5610073913574,66.24475295898438,152.83020739135742,66.21665295898437Q153.45430739135742,65.23642295898438,153.73170739135742,64.28504295898438Q154.31040739135742,62.30067295898438,153.3805073913574,60.44185295898438C152.0047073913574,57.691923778984375,148.70310739135743,57.691926428984374,144.30060739135743,57.691929968984375C144.03230739135742,57.69193017898437,143.77410739135743,57.691420038984376,143.5251073913574,57.69092819098437C139.68710739135742,57.683347228984374,138.04859739135742,57.68011077898438,136.04611739135743,59.61689295898437Q134.38162739135743,61.226762958984374,135.14798739135742,64.51212295898438ZM151.9840073913574,90.34113295898437L136.61710739135742,90.34113295898437Q134.13182739135743,90.34113295898437,132.37446739135743,88.58373295898437Q130.61710739135742,86.82643295898437,130.61710739135742,84.34113295898437L130.61710739135742,73.64553295898438Q130.61710739135742,71.51073295898438,132.12663739135743,70.00113295898437Q133.63616739135742,68.49163295898438,135.77096739135743,68.49163295898438L138.68660739135743,68.49163295898438L137.63682739135743,65.77154295898437Q136.25673739135743,62.19559295898438,137.4365473913574,61.054492958984376Q138.40903739135743,60.113902958984376,139.51000739135742,59.88173295898437Q140.44360739135743,59.684842958984376,143.52110739135742,59.69092295898437L144.29800739135743,59.691932958984374Q148.20850739135741,59.69192295898438,149.54190739135743,59.988092958984375Q151.08900739135743,60.33169295898438,151.5918073913574,61.33666295898438Q152.46060739135743,63.073362958984376,151.14310739135743,65.14244295898438L149.2718073913574,68.08133295898438L152.75330739135742,68.21513295898437Q154.9439073913574,68.29943295898437,156.46400739135743,69.87903295898437Q157.9840073913574,71.45863295898437,157.9840073913574,73.65083295898438L157.9840073913574,84.34113295898437Q157.9840073913574,86.82643295898437,156.22670739135742,88.58373295898437Q154.46930739135743,90.34113295898437,151.9840073913574,90.34113295898437ZM134.97797739135743,73.39713295898437Q133.22062739135743,75.15443295898437,133.22062739135743,77.63973295898438L133.22062739135743,81.18953295898437Q133.22062739135743,83.67473295898438,134.97797739135743,85.43213295898437Q136.73533739135743,87.18953295898437,139.22060739135742,87.18953295898437L149.38040739135744,87.18953295898437Q151.86570739135743,87.18953295898437,153.62300739135742,85.43213295898437Q155.38040739135744,83.67473295898438,155.38040739135744,81.18953295898437L155.38040739135744,77.63973295898438Q155.38040739135744,75.15443295898437,153.62300739135742,73.39713295898437Q151.86570739135743,71.63973295898438,149.38040739135744,71.63973295898438L139.22060739135742,71.63973295898438Q136.73533739135743,71.63973295898438,134.97797739135743,73.39713295898437ZM135.22062739135743,81.18953295898437L135.22062739135743,77.63973295898438Q135.22062739135743,77.44323295898437,135.23988739135743,77.24763295898438Q135.25914739135743,77.05213295898437,135.29747739135743,76.85933295898437Q135.3358173913574,76.66663295898438,135.3928573913574,76.47863295898438Q135.4499073913574,76.29053295898437,135.5251073913574,76.10903295898437Q135.60030739135743,75.92743295898438,135.69293739135742,75.75413295898437Q135.78556739135743,75.58083295898437,135.8947473913574,75.41743295898438Q136.00391739135742,75.25403295898437,136.12857739135742,75.10213295898437Q136.25324739135743,74.95023295898437,136.39219739135743,74.81133295898438Q136.53114739135742,74.67233295898437,136.68304739135743,74.54773295898437Q136.83494739135742,74.42303295898438,136.9983373913574,74.31383295898438Q137.16172739135743,74.20473295898438,137.33503739135742,74.11203295898437Q137.50833739135743,74.01943295898437,137.68988739135742,73.94423295898437Q137.87143739135743,73.86903295898438,138.05948739135744,73.81193295898437Q138.24752739135744,73.75493295898437,138.44025739135742,73.71663295898438Q138.6330073913574,73.67823295898438,138.82850739135742,73.65903295898437Q139.02410739135743,73.63973295898438,139.22060739135742,73.63973295898438L149.38040739135744,73.63973295898438Q149.57690739135742,73.63973295898438,149.7725073913574,73.65903295898437Q149.96800739135742,73.67823295898438,150.16080739135742,73.71663295898438Q150.35350739135743,73.75493295898437,150.5415073913574,73.81193295898437Q150.72960739135743,73.86903295898438,150.91110739135743,73.94423295898437Q151.0927073913574,74.01943295898437,151.26600739135742,74.11203295898437Q151.43930739135743,74.20473295898438,151.60270739135743,74.31383295898438Q151.76610739135742,74.42303295898438,151.91800739135743,74.54773295898437Q152.06990739135742,74.67233295898437,152.20880739135742,74.81133295898438Q152.34780739135743,74.95023295898437,152.47240739135742,75.10213295898437Q152.5971073913574,75.25403295898437,152.70630739135743,75.41743295898438Q152.81550739135741,75.58083295898437,152.90810739135742,75.75413295898437Q153.00070739135742,75.92743295898438,153.07590739135742,76.10903295898437Q153.1511073913574,76.29053295898437,153.20820739135743,76.47863295898438Q153.26520739135742,76.66663295898438,153.3035073913574,76.85933295898437Q153.3419073913574,77.05213295898437,153.36110739135742,77.24763295898438Q153.38040739135744,77.44323295898437,153.38040739135744,77.63973295898438L153.38040739135744,81.18953295898437Q153.38040739135744,81.38603295898437,153.36110739135742,81.58153295898438Q153.3419073913574,81.77713295898437,153.3035073913574,81.96983295898437Q153.26520739135742,82.16263295898437,153.20820739135743,82.35063295898438Q153.1511073913574,82.53863295898438,153.07590739135742,82.72023295898438Q153.00070739135742,82.90183295898437,152.90810739135742,83.07513295898437Q152.81550739135741,83.24843295898438,152.70630739135743,83.41173295898437Q152.5971073913574,83.57513295898437,152.47240739135742,83.72703295898438Q152.34780739135743,83.87893295898438,152.20880739135742,84.01793295898437Q152.06990739135742,84.15683295898438,151.91800739135743,84.28153295898437Q151.76610739135742,84.40623295898438,151.60270739135743,84.51533295898437Q151.43930739135743,84.62453295898437,151.26600739135742,84.71713295898438Q151.0927073913574,84.80983295898437,150.91110739135743,84.88503295898437Q150.72960739135743,84.96023295898438,150.5415073913574,85.01723295898438Q150.35350739135743,85.07433295898437,150.16080739135742,85.11263295898438Q149.96800739135742,85.15093295898437,149.7725073913574,85.17023295898437Q149.57690739135742,85.18953295898437,149.38040739135744,85.18953295898437L139.22060739135742,85.18953295898437Q139.02410739135743,85.18953295898437,138.82850739135742,85.17023295898437Q138.6330073913574,85.15093295898437,138.44025739135742,85.11263295898438Q138.24752739135744,85.07433295898437,138.05948739135744,85.01723295898438Q137.87143739135743,84.96023295898438,137.68988739135742,84.88503295898437Q137.50833739135743,84.80983295898437,137.33503739135742,84.71723295898437Q137.16172739135743,84.62453295898437,136.9983373913574,84.51533295898437Q136.83494739135742,84.40623295898438,136.68304739135743,84.28153295898437Q136.53114739135742,84.15683295898438,136.39219739135743,84.01793295898437Q136.25324739135743,83.87893295898438,136.12857739135742,83.72703295898438Q136.00391739135742,83.57513295898437,135.8947473913574,83.41173295898437Q135.78556739135743,83.24843295898438,135.69293739135742,83.07513295898437Q135.60030739135743,82.90183295898437,135.5251073913574,82.72023295898438Q135.4499073913574,82.53863295898438,135.3928573913574,82.35063295898438Q135.3358173913574,82.16263295898437,135.29747739135743,81.96983295898437Q135.25914739135743,81.77713295898437,135.23988739135743,81.58153295898438Q135.22062739135743,81.38603295898437,135.22062739135743,81.18953295898437Z" fill-rule="evenodd" fill="#000000" fill-opacity="1"/></g><g style="mix-blend-mode:passthrough" transform="matrix(-0.7345516681671143,-0.6785526871681213,0.6819731593132019,-0.7313772439956665,19.061559537874018,240.45797175343864)"><path d="M56.94054342651367,138.98453549804688C56.876572926513674,139.7535354980469,57.26074642651367,140.49083549804686,57.927728426513674,140.87893549804687L60.129378426513675,142.16013549804688C61.31628842651367,142.85083549804688,62.83336842651367,142.15323549804688,63.06731842651367,140.80003549804687Q64.30670842651367,133.63153549804687,64.06825842651367,129.03213549804687C63.78522842651367,123.57298549804688,64.05498842651367,124.16680549804687,62.67644842651367,120.86786549804688Q61.98027842651367,119.20190549804687,60.999138426513674,118.13210549804687C60.09745842651367,117.14893349804687,58.691248426513674,117.93801549804688,58.58065842651367,119.26745549804687L56.94054342651367,138.98453549804688Z" fill="url(#master_svg3_15_11707)" fill-opacity="1"/></g><g style="mix-blend-mode:passthrough" transform="matrix(-0.9601252675056458,-0.27957022190093994,0.28209808468818665,-0.9593855738639832,22.205610527588533,288.38926449015844)"><path d="M32.59434152026367,201.67069204101563C32.200438520263674,202.67469204101562,32.63226352026367,203.83469204101561,33.60955452026367,204.2909920410156L35.315064520263675,205.0871920410156C36.45517452026367,205.61939204101563,37.80202452026367,204.9630920410156,38.09970452026367,203.74059204101562Q43.226414520263674,182.68609204101563,42.95621452026367,174.7814920410156C42.67091452026367,166.43889204101563,42.22011452026367,169.54329204101563,40.890144520263675,161.56769204101562Q40.22517452026367,157.57989204101563,37.98412452026367,151.37207204101563Q37.97757452026367,151.34979204101563,37.97094452026367,151.32747204101562C37.58154452026367,150.01570204101563,36.15687452026367,150.67578204101562,36.50371452026367,151.9994420410156Q40.01085452026367,165.38369204101562,38.482144520263674,177.06979204101563Q36.59945452026367,191.46179204101563,32.59434152026367,201.67069204101563Z" fill="url(#master_svg4_15_12472)" fill-opacity="1"/></g><g style="mix-blend-mode:passthrough"><path d="M57.02671432495117,112.55929565429688Q65.27671432495117,116.18529565429688,73.39471432495117,117.63989565429688Q81.51271432495118,119.09459565429688,90.02671432495117,120.05929565429688L80.81281432495118,112.55929565429688L71.59901432495117,105.05929565429688Q69.24981432495117,108.08651565429687,65.73871432495118,110.38187565429688Q62.22764432495117,112.67723565429688,57.02671432495117,112.55929565429688Z" fill="#5F717C" fill-opacity="1"/></g><g style="mix-blend-mode:passthrough" transform="matrix(0.6744030714035034,-0.7383633852005005,0.7414950728416443,0.6709583401679993,-38.14503646931598,86.08479884357757)"><rect x="78.33481979370117" y="85.84091186523438" width="47.19325637817383" height="1.2510969638824463" rx="0.6255484819412231" fill="#791A1A" fill-opacity="0.800000011920929"/></g><g style="mix-blend-mode:passthrough" transform="matrix(0.6744031310081482,-0.7383633255958557,0.7414950728416443,0.6709583401679993,-42.54270688824113,86.73398992267244)"><rect x="76.85972213745117" y="91.12399291992188" width="55.22285842895508" height="1.2510969638824463" rx="0.6255484819412231" fill="#791A1A" fill-opacity="0.800000011920929"/></g><g style="mix-blend-mode:passthrough" transform="matrix(0.8478475213050842,-0.5302400588989258,0.5338683128356934,0.8455676436424255,8.871463088023347,69.12006182580626)"><rect x="124.83396530151367" y="18.960357666015625" width="4.401082515716553" height="1.920120120048523" rx="0.9600600600242615" fill="#794444" fill-opacity="0.6000000238418579"/></g><g style="mix-blend-mode:passthrough" transform="matrix(-0.7494730353355408,-0.6620348691940308,0.6655053496360779,-0.746393084526062,180.8606530736372,157.87014501672684)"><rect x="120.40464401245117" y="44.753997802734375" width="7.496625900268555" height="4.182008266448975" rx="2.0910041332244873" fill="#794444" fill-opacity="0.6000000238418579"/></g></g></svg>