<svg xmlns="http://www.w3.org/2000/svg" xmlns:xlink="http://www.w3.org/1999/xlink" fill="none" version="1.1" width="189.47926330566406" height="148.33251953125" viewBox="0 0 189.47926330566406 148.33251953125"><defs><filter id="master_svg0_22_306/13_2854" filterUnits="objectBoundingBox" color-interpolation-filters="sRGB" x="-6" y="-10" width="63.618282318115234" height="80.40625"><feFlood flood-opacity="0" result="BackgroundImageFix"/><feColorMatrix in="SourceAlpha" type="matrix" values="0 0 0 0 0 0 0 0 0 0 0 0 0 0 0 0 0 0 127 0"/><feOffset dy="4" dx="8"/><feGaussianBlur stdDeviation="3.5"/><feColorMatrix type="matrix" values="0 0 0 0 0 0 0 0 0 0 0 0 0 0 0 0 0 0 0.3019607961177826 0"/><feBlend mode="normal" in2="BackgroundImageFix" result="effect1_dropShadow"/><feBlend mode="normal" in="SourceGraphic" in2="effect1_dropShadow" result="shape"/></filter><linearGradient x1="0.7682770490646362" y1="0.1499810516834259" x2="-1.254136085510254" y2="1.8260393142700195" id="master_svg1_13_3369"><stop offset="0%" stop-color="#75CE58" stop-opacity="1"/><stop offset="100.00002384185791%" stop-color="#4A0D23" stop-opacity="1"/><stop offset="100.00002384185791%" stop-color="#75CE58" stop-opacity="0"/></linearGradient><linearGradient x1="0.4966343343257904" y1="-0.8716837763786316" x2="0.5021681785583496" y2="0.5" id="master_svg2_13_2853"><stop offset="0%" stop-color="#617440" stop-opacity="1"/><stop offset="94.96371746063232%" stop-color="#4A0D23" stop-opacity="1"/><stop offset="100.00001192092896%" stop-color="#4A0D23" stop-opacity="0"/></linearGradient><linearGradient x1="0.6269410848617554" y1="0.28515830636024475" x2="-0.34496769309043884" y2="1.583755612373352" id="master_svg3_13_2872"><stop offset="0%" stop-color="#75CE58" stop-opacity="1"/><stop offset="100.00008344650269%" stop-color="#4A0D23" stop-opacity="1"/></linearGradient><linearGradient x1="0.6269410848617554" y1="0.28515830636024475" x2="-0.34496769309043884" y2="1.583755612373352" id="master_svg4_13_4130"><stop offset="0%" stop-color="#75CE58" stop-opacity="1"/><stop offset="100.00008344650269%" stop-color="#4A0D23" stop-opacity="1"/></linearGradient><filter id="master_svg5_22_306/13_3418" filterUnits="objectBoundingBox" color-interpolation-filters="sRGB" x="-8" y="-12" width="117.47621154785156" height="118"><feFlood flood-opacity="0" result="BackgroundImageFix"/><feColorMatrix in="SourceAlpha" type="matrix" values="0 0 0 0 0 0 0 0 0 0 0 0 0 0 0 0 0 0 127 0"/><feOffset dy="4" dx="8"/><feGaussianBlur stdDeviation="4"/><feColorMatrix type="matrix" values="0 0 0 0 0 0 0 0 0 0 0 0 0 0 0 0 0 0 0.3019607961177826 0"/><feBlend mode="normal" in2="BackgroundImageFix" result="effect1_dropShadow"/><feBlend mode="normal" in="SourceGraphic" in2="effect1_dropShadow" result="shape"/><feGaussianBlur in="BackgroundImage" stdDeviation="1.5"/><feComposite in2="SourceAlpha" operator="in" result="effect2_foregroundBlur"/><feBlend mode="normal" in="SourceGraphic" in2="effect2_foregroundBlur" result="shape"/></filter><filter id="master_svg6_22_302" filterUnits="objectBoundingBox" color-interpolation-filters="sRGB" x="-8" y="-12" width="45.07809543609619" height="87.84001159667969"><feFlood flood-opacity="0" result="BackgroundImageFix"/><feColorMatrix in="SourceAlpha" type="matrix" values="0 0 0 0 0 0 0 0 0 0 0 0 0 0 0 0 0 0 127 0"/><feOffset dy="4" dx="8"/><feGaussianBlur stdDeviation="4"/><feColorMatrix type="matrix" values="0 0 0 0 0 0 0 0 0 0 0 0 0 0 0 0 0 0 0.3019607961177826 0"/><feBlend mode="normal" in2="BackgroundImageFix" result="effect1_dropShadow"/><feBlend mode="normal" in="SourceGraphic" in2="effect1_dropShadow" result="shape"/></filter></defs><g style="mix-blend-mode:passthrough"><g style="mix-blend-mode:passthrough"><g style="mix-blend-mode:passthrough"><g transform="matrix(-1,0,0,1,108.23656463623047,0)" filter="url(#master_svg0_22_306/13_2854)"><path d="M89.73658231811524,67L89.73658231811524,70.88194C89.73658231811524,89.5677,80.18668231811523,98.0556,68.40798231811523,98.0556L65.02738231811523,98.0556C65.40418231811523,92.2093,67.07138231811524,88.67099999999999,71.42238231811524,84.4668C73.56238231811523,82.3997,73.38108231811523,81.206,72.32708231811523,81.8911C65.06828231811524,86.6077,61.544612318115234,92.7295,61.38464231811523,102.908Q60.449592318115236,107.5178,58.543472318115235,111.64240000000001Q56.637352318115234,115.76689999999999,54.118282318115234,119.4062L54.544359318115234,110.6719C54.544359318115234,109.34909999999999,56.059682318115236,107.6403,56.98483231811524,104.84899999999999C57.90998231811523,102.05760000000001,58.24495231811523,98.1837,58.44935231811523,97.0851C58.04055231811523,94.5735,57.74365231811524,90.7148,57.74365231811524,86.4097C57.74365231811524,75.68973,65.70098231811524,67,75.51748231811524,67C79.07228231811524,67,82.62708231811524,68.94097,89.73658231811524,67Z" fill="url(#master_svg1_13_3369)" fill-opacity="1"/></g><g style="mix-blend-mode:passthrough"><path d="M153.61763903808594,148.33256875Q139.91863903808593,139.23926875,131.59363903808594,136.87346875Q117.55563903808594,132.95305875,99.15403903808594,129.45059875L99.90193903808594,125.52114075L99.70123903808594,129.51610875Q80.85123903808594,128.56926875,59.580439038085935,129.51717875L59.402339038085934,125.52114075L60.002739038085934,129.47582875Q37.27533903808594,132.92601875,16.45438903808594,140.76086875L13.636889038085938,133.27346875Q35.24403903808594,125.14272885,58.80203903808594,121.56644875L59.01203903808594,121.53456875L59.22423903808594,121.52510875Q80.87383903808593,120.56031875,100.10263903808594,121.52617875L100.37853903808593,121.54003875L100.64983903808594,121.59167875Q119.38263903808594,125.15719875,133.78063903808595,129.17811875Q143.30463903808592,131.88464875,158.04263903808595,141.66736875L153.61763903808594,148.33256875Z" fill="url(#master_svg2_13_2853)" fill-opacity="1"/></g></g><g><path d="M86.44342966308594,84L86.44342966308594,87.90476C85.06072966308594,97.6667,83.53352966308594,104.1161,79.52992966308594,108.6C75.52622966308594,113.0839,69.85092966308594,114.0667,64.32012966308594,115.2381L60.81361966308594,115.2381C61.20446966308594,109.3575,62.93376966308594,105.7983,67.44692966308594,101.5695C69.66662966308594,99.4902,69.47852966308594,98.2895,68.38532966308594,98.9787C60.85601966308594,103.723,57.11718966308594,110.1346,56.95126966308594,120.3729L56.94573966308594,125L55.10212966308594,125L53.25852966308594,125C53.25852966308594,122.3389,53.47238766308594,116.019,53.89641666308594,113.809C53.47238766308594,111.2826,53.25852966308594,107.85419999999999,53.25852966308594,103.5238C53.25852966308594,92.74081,61.512349663085935,84,71.69452966308594,84C75.38182966308594,84,79.06902966308594,85.95238,86.44342966308594,84Z" fill="url(#master_svg3_13_2872)" fill-opacity="1"/></g><g><path d="M120.63384856567383,24L120.63384856567383,31.46065C118.11984856567383,50.112300000000005,115.34314856567383,62.4349,108.06384856567382,71.0021C100.78454856567383,79.5693,90.46584856567382,81.447,80.40984856567383,83.68520000000001L74.03424856567383,83.68520000000001C74.74494856567382,72.4495,77.88904856567383,65.6491,86.09484856567383,57.5692C90.13064856567382,53.5964,89.78874856567383,51.3023,87.80094856567382,52.6191C74.11134856567382,61.6838,69.39844856567383,65.4382,69.09676856567383,85L65.95425856567383,83.7158L61.554748565673826,81.1474C60.78378956567383,76.3203,60.29774856567383,69.5771,60.29774856567383,61.3033C60.29774856567383,40.7007,75.30464856567383,24,93.81784856567383,24C100.52184856567382,24,107.22584856567383,27.73033,120.63384856567383,24Z" fill="url(#master_svg4_13_4130)" fill-opacity="1"/></g><g style="mix-blend-mode:passthrough" filter="url(#master_svg5_22_306/13_3418)"><ellipse cx="89.9630241394043" cy="51" rx="42.73810577392578" ry="43" fill="#0095FF" fill-opacity="0.20000000298023224"/><ellipse cx="89.9630241394043" cy="51" rx="41.73810577392578" ry="42" fill-opacity="0" stroke-opacity="1" stroke="#18679F" fill="none" stroke-width="2"/></g></g><g style="mix-blend-mode:passthrough" transform="matrix(0.6459242105484009,-0.7634015083312988,0.7196959257125854,0.6942894458770752,-19.22477018522386,114.54260666838309)" filter="url(#master_svg6_22_302)"><path d="M116.41036224365234 83.98388671875C116.41036224365234 83.98388671875 116.41036224365234 83.98388671875 116.41036224365234 83.98388671875L129.48845767974854 83.98388671875C129.48845767974854 83.98388671875 129.48845767974854 83.98388671875 129.48845767974854 83.98388671875L129.48845767974854 135.8238983154297C129.48845767974854 138.03303731475287 127.69759667907171 139.8238983154297 125.48845767974854 139.8238983154297L120.41036224365234 139.8238983154297C118.20122324432917 139.8238983154297 116.41036224365234 138.03303731475287 116.41036224365234 135.8238983154297Z" fill="#000000" fill-opacity="1"/></g></g></svg>