<svg xmlns="http://www.w3.org/2000/svg" xmlns:xlink="http://www.w3.org/1999/xlink" fill="none" version="1.1" width="173.71865844726562" height="169.6282958984375" viewBox="0 0 173.71865844726562 169.6282958984375"><defs><filter id="master_svg0_22_326/15_17319" filterUnits="objectBoundingBox" color-interpolation-filters="sRGB" x="-21" y="-15" width="35.58047294616699" height="103.45182800292969"><feFlood flood-opacity="0" result="BackgroundImageFix"/><feColorMatrix in="SourceAlpha" type="matrix" values="0 0 0 0 0 0 0 0 0 0 0 0 0 0 0 0 0 0 127 0"/><feOffset dy="-3" dx="-9"/><feGaussianBlur stdDeviation="3"/><feColorMatrix type="matrix" values="0 0 0 0 0 0 0 0 0 0 0 0 0 0 0 0 0 0 0.3019607961177826 0"/><feBlend mode="normal" in2="BackgroundImageFix" result="effect1_dropShadow"/><feBlend mode="normal" in="SourceGraphic" in2="effect1_dropShadow" result="shape"/></filter><filter id="master_svg1_22_326/15_17324" filterUnits="objectBoundingBox" color-interpolation-filters="sRGB" x="-21" y="-15" width="35.66654014587402" height="103.49324035644531"><feFlood flood-opacity="0" result="BackgroundImageFix"/><feColorMatrix in="SourceAlpha" type="matrix" values="0 0 0 0 0 0 0 0 0 0 0 0 0 0 0 0 0 0 127 0"/><feOffset dy="-3" dx="-9"/><feGaussianBlur stdDeviation="3"/><feColorMatrix type="matrix" values="0 0 0 0 0 0 0 0 0 0 0 0 0 0 0 0 0 0 0.3019607961177826 0"/><feBlend mode="normal" in2="BackgroundImageFix" result="effect1_dropShadow"/><feBlend mode="normal" in="SourceGraphic" in2="effect1_dropShadow" result="shape"/></filter><filter id="master_svg2_22_326/15_18717" filterUnits="objectBoundingBox" color-interpolation-filters="sRGB" x="-21" y="-15" width="31.492688179016113" height="72.21796417236328"><feFlood flood-opacity="0" result="BackgroundImageFix"/><feColorMatrix in="SourceAlpha" type="matrix" values="0 0 0 0 0 0 0 0 0 0 0 0 0 0 0 0 0 0 127 0"/><feOffset dy="-3" dx="-9"/><feGaussianBlur stdDeviation="3"/><feColorMatrix type="matrix" values="0 0 0 0 0 0 0 0 0 0 0 0 0 0 0 0 0 0 0.3019607961177826 0"/><feBlend mode="normal" in2="BackgroundImageFix" result="effect1_dropShadow"/><feBlend mode="normal" in="SourceGraphic" in2="effect1_dropShadow" result="shape"/></filter><filter id="master_svg3_22_326/15_18630" filterUnits="objectBoundingBox" color-interpolation-filters="sRGB" x="-21" y="-15" width="31.488051414489746" height="72.24794006347656"><feFlood flood-opacity="0" result="BackgroundImageFix"/><feColorMatrix in="SourceAlpha" type="matrix" values="0 0 0 0 0 0 0 0 0 0 0 0 0 0 0 0 0 0 127 0"/><feOffset dy="-3" dx="-9"/><feGaussianBlur stdDeviation="3"/><feColorMatrix type="matrix" values="0 0 0 0 0 0 0 0 0 0 0 0 0 0 0 0 0 0 0.3019607961177826 0"/><feBlend mode="normal" in2="BackgroundImageFix" result="effect1_dropShadow"/><feBlend mode="normal" in="SourceGraphic" in2="effect1_dropShadow" result="shape"/></filter><filter id="master_svg4_22_326/15_18631" filterUnits="objectBoundingBox" color-interpolation-filters="sRGB" x="-21" y="-15" width="39.65683650970459" height="30.795485019683838"><feFlood flood-opacity="0" result="BackgroundImageFix"/><feColorMatrix in="SourceAlpha" type="matrix" values="0 0 0 0 0 0 0 0 0 0 0 0 0 0 0 0 0 0 127 0"/><feOffset dy="-3" dx="-9"/><feGaussianBlur stdDeviation="3"/><feColorMatrix type="matrix" values="0 0 0 0 0 0 0 0 0 0 0 0 0 0 0 0 0 0 0.3019607961177826 0"/><feBlend mode="normal" in2="BackgroundImageFix" result="effect1_dropShadow"/><feBlend mode="normal" in="SourceGraphic" in2="effect1_dropShadow" result="shape"/></filter><filter id="master_svg5_22_326/15_18692" filterUnits="objectBoundingBox" color-interpolation-filters="sRGB" x="-21" y="-15" width="38.97610282897949" height="65.45245742797852"><feFlood flood-opacity="0" result="BackgroundImageFix"/><feColorMatrix in="SourceAlpha" type="matrix" values="0 0 0 0 0 0 0 0 0 0 0 0 0 0 0 0 0 0 127 0"/><feOffset dy="-3" dx="-9"/><feGaussianBlur stdDeviation="3"/><feColorMatrix type="matrix" values="0 0 0 0 0 0 0 0 0 0 0 0 0 0 0 0 0 0 0.3019607961177826 0"/><feBlend mode="normal" in2="BackgroundImageFix" result="effect1_dropShadow"/><feBlend mode="normal" in="SourceGraphic" in2="effect1_dropShadow" result="shape"/></filter><filter id="master_svg6_22_326/15_18718" filterUnits="objectBoundingBox" color-interpolation-filters="sRGB" x="-21" y="-15" width="39.66652870178223" height="30.791263103485107"><feFlood flood-opacity="0" result="BackgroundImageFix"/><feColorMatrix in="SourceAlpha" type="matrix" values="0 0 0 0 0 0 0 0 0 0 0 0 0 0 0 0 0 0 127 0"/><feOffset dy="-3" dx="-9"/><feGaussianBlur stdDeviation="3"/><feColorMatrix type="matrix" values="0 0 0 0 0 0 0 0 0 0 0 0 0 0 0 0 0 0 0.3019607961177826 0"/><feBlend mode="normal" in2="BackgroundImageFix" result="effect1_dropShadow"/><feBlend mode="normal" in="SourceGraphic" in2="effect1_dropShadow" result="shape"/></filter><filter id="master_svg7_22_326/15_18719" filterUnits="objectBoundingBox" color-interpolation-filters="sRGB" x="-21" y="-15" width="38.98537635803223" height="65.42670059204102"><feFlood flood-opacity="0" result="BackgroundImageFix"/><feColorMatrix in="SourceAlpha" type="matrix" values="0 0 0 0 0 0 0 0 0 0 0 0 0 0 0 0 0 0 127 0"/><feOffset dy="-3" dx="-9"/><feGaussianBlur stdDeviation="3"/><feColorMatrix type="matrix" values="0 0 0 0 0 0 0 0 0 0 0 0 0 0 0 0 0 0 0.3019607961177826 0"/><feBlend mode="normal" in2="BackgroundImageFix" result="effect1_dropShadow"/><feBlend mode="normal" in="SourceGraphic" in2="effect1_dropShadow" result="shape"/></filter></defs><g style="mix-blend-mode:passthrough"><g style="mix-blend-mode:passthrough" transform="matrix(-0.4712705910205841,-0.8819887042045593,0.882152795791626,-0.4709632098674774,-80.28205826701088,187.3771783289186)" filter="url(#master_svg0_22_326/15_17319)"><path d="M16.043371200561523,197.216204296875Q27.623871200561524,195.01660429687502,27.623871200561524,175.48580429687502L27.623871200561524,145.946004296875C27.623871200561524,132.025004296875,24.899031200561524,127.950504296875,16.043371200561523,117.764404296875L16.043371200561523,197.216204296875Z" fill="#9AB4C5" fill-opacity="1"/><path d="M17.043371200561523,196.98820429687498Q16.554661200561522,197.11910429687498,16.043371200561523,197.216204296875L16.043371200561523,117.764404296875C16.38580620056152,118.158286296875,16.719074200561522,118.543030296875,17.043371200561523,118.919554296875C25.105681200561524,128.280404296875,27.623871200561524,132.563304296875,27.623871200561524,145.946004296875L27.623871200561524,175.48580429687502Q27.623871200561524,194.154304296875,17.043371200561523,196.98820429687498ZM17.043371200561523,195.94820429687502Q26.623871200561524,193.127904296875,26.623871200561524,175.48580429687502L26.623871200561524,145.946004296875Q26.623871200561524,140.759804296875,26.071871200561525,137.257804296875Q25.51744120056152,133.739704296875,24.240341200561524,130.860004296875Q23.042141200561524,128.158304296875,20.784421200561525,125.101524296875Q19.463541200561522,123.313174296875,17.043371200561523,120.461624296875L17.043371200561523,195.94820429687502Z" fill-rule="evenodd" fill="#000000" fill-opacity="1"/></g><g style="mix-blend-mode:passthrough" transform="matrix(-0.8045995831489563,-0.5938177704811096,0.5920448899269104,-0.8059049248695374,-5.947893098508871,296.6880433534101)" filter="url(#master_svg1_22_326/15_17324)"><path d="M46.78882127868653,172.02963779296874C45.767557878686524,179.16363779296876,45.512221278686525,201.72283779296873,45.76753377868652,207.69963779296876Q45.76753377868652,227.57293779296873,57.34195127868652,228.76193779296875L57.34195127868652,149.26873779296875C51.89516127868652,156.40274779296874,48.831351278686526,157.76160779296876,46.78882127868653,172.02963779296874Z" fill="#9AB4C5" fill-opacity="1"/><path d="M45.76753377868652,207.69963779296876Q45.76753377868652,226.69503779296875,56.34195127868652,228.62043779296874Q56.83075127868652,228.70943779296874,57.34195127868652,228.76193779296875L57.34195127868652,149.26873779296875C56.999351278686525,149.71752679296875,56.66615127868653,150.14346079296874,56.34195127868652,150.55118779296876C51.51373127868652,156.62479779296876,48.70286127868653,158.65918779296874,46.78882127868653,172.02963779296874C45.767557878686524,179.16363779296876,45.512221278686525,201.72283779296873,45.76753377868652,207.69963779296876ZM56.34195127868652,152.14438779296876Q55.97435127868653,152.59855779296876,55.56137127868652,153.10284779296876Q53.72922127868652,155.34031779296876,52.949721278686525,156.44137779296875Q51.708741278686524,158.19429779296874,50.872311278686524,160.00303779296874Q48.91468127868652,164.23613779296875,47.77873127868652,172.17133779296876Q47.09194127868653,176.96883779296874,46.799221278686524,190.32053779296876Q46.536990278686524,202.28133779296874,46.76662127868652,207.65693779296873L46.767531278686526,207.67833779296876L46.767531278686526,207.69963779296876Q46.767531278686526,225.66463779296873,56.34195127868652,227.60063779296877L56.34195127868652,152.14438779296876Z" fill-rule="evenodd" fill="#000000" fill-opacity="1"/></g><g style="mix-blend-mode:passthrough" transform="matrix(-0.4283241927623749,-0.9036251306533813,0.903827428817749,-0.427897185087204,39.99431114313285,201.0847749255106)" filter="url(#master_svg2_22_326/15_18717)"><rect x="83.62576866149902" y="87.90438842773438" width="7.492688179016113" height="48.21796417236328" rx="3.7463440895080566" fill="#9AB4C5" fill-opacity="1"/><rect x="84.12576866149902" y="88.40438842773438" width="6.492688179016113" height="47.21796417236328" rx="3.2463440895080566" fill-opacity="0" stroke-opacity="1" stroke="#000000" fill="none" stroke-width="1"/></g><g style="mix-blend-mode:passthrough" transform="matrix(-0.8495256900787354,-0.5275472402572632,0.5254180431365967,-0.8508442044258118,112.08606707024728,196.67857520627172)" filter="url(#master_svg3_22_326/15_18630)"><rect x="83.98959922790527" y="82.32464599609375" width="7.488051414489746" height="48.24794006347656" rx="3.744025707244873" fill="#9AB4C5" fill-opacity="1"/><rect x="84.48959922790527" y="82.82464599609375" width="6.488051414489746" height="47.24794006347656" rx="3.244025707244873" fill-opacity="0" stroke-opacity="1" stroke="#000000" fill="none" stroke-width="1"/></g><g style="mix-blend-mode:passthrough" transform="matrix(-0.8495256900787354,-0.5275471806526184,0.5254180431365967,-0.8508442044258118,142.43955195238732,179.57319242399979)" filter="url(#master_svg4_22_326/15_18631)"><rect x="96.74295616149902" y="69.44761657714844" width="15.65683650970459" height="6.795485019683838" rx="3.397742509841919" fill="#3E0606" fill-opacity="1"/><rect x="97.24295616149902" y="69.94761657714844" width="14.65683650970459" height="5.795485019683838" rx="2.897742509841919" fill-opacity="0" stroke-opacity="1" stroke="#000000" fill="none" stroke-width="1"/></g><g style="mix-blend-mode:passthrough" transform="matrix(-0.8495256900787354,-0.5275472402572632,0.5254181027412415,-0.850844144821167,176.2672992687917,146.8622899725235)" filter="url(#master_svg5_22_326/15_18692)"><rect x="109.01822471618652" y="48.27528381347656" width="14.976102828979492" height="41.452457427978516" rx="7.488051414489746" fill="#16672C" fill-opacity="1"/><rect x="109.51822471618652" y="48.77528381347656" width="13.976102828979492" height="40.452457427978516" rx="6.988051414489746" fill-opacity="0" stroke-opacity="1" stroke="#000000" fill="none" stroke-width="1"/></g><g style="mix-blend-mode:passthrough" transform="matrix(-0.4283241629600525,-0.9036251902580261,0.903827428817749,-0.4278971254825592,68.78085674511806,211.57585467180718)" filter="url(#master_svg6_22_326/15_18718)"><rect x="101.33670616149902" y="84.04348754882812" width="15.666528701782227" height="6.791263103485107" rx="3.3956315517425537" fill="#3E0606" fill-opacity="1"/><rect x="101.83670616149902" y="84.54348754882812" width="14.666528701782227" height="5.791263103485107" rx="2.8956315517425537" fill-opacity="0" stroke-opacity="1" stroke="#000000" fill="none" stroke-width="1"/></g><g style="mix-blend-mode:passthrough" transform="matrix(-0.4283241927623749,-0.9036251306533813,0.903827428817749,-0.4278971552848816,109.93714206604255,215.4676086215229)" filter="url(#master_svg7_22_326/15_18719)"><rect x="123.14328575134277" y="72.96900939941406" width="14.985376358032227" height="41.426700592041016" rx="7.492688179016113" fill="#16672C" fill-opacity="1"/><rect x="123.64328575134277" y="73.46900939941406" width="13.985376358032227" height="40.426700592041016" rx="6.992688179016113" fill-opacity="0" stroke-opacity="1" stroke="#000000" fill="none" stroke-width="1"/></g><g style="mix-blend-mode:passthrough" transform="matrix(-0.6769538521766663,-0.7360253930091858,0.7351770997047424,-0.6778750419616699,67.92255447478908,213.4584433375179)"><ellipse cx="86.87829685211182" cy="97.9103422164917" rx="6.130396842956543" ry="6.112124443054199" fill="#6C808D" fill-opacity="1"/><ellipse cx="86.87829685211182" cy="97.9103422164917" rx="5.630396842956543" ry="5.612124443054199" fill-opacity="0" stroke-opacity="1" stroke="#000000" fill="none" stroke-width="1"/></g><g style="mix-blend-mode:passthrough" transform="matrix(-0.6769538521766663,-0.7360253930091858,0.7351770997047424,-0.6778750419616699,71.77788588857709,205.5312950594356)"><ellipse cx="84.00413846969604" cy="90.04596090316772" rx="3.0651984214782715" ry="3.0560622215270996" fill="#16672C" fill-opacity="1"/><ellipse cx="84.00413846969604" cy="90.04596090316772" rx="2.5651984214782715" ry="2.5560622215270996" fill-opacity="0" stroke-opacity="1" stroke="#000000" fill="none" stroke-width="1"/></g><g style="mix-blend-mode:passthrough" transform="matrix(0.4306071996688843,0.9025393724441528,-0.9003698229789734,0.4351253807544708,126.09824287179958,-110.08984752981883)"><rect x="150.18784141540527" y="45.072998046875" width="5.096836566925049" height="26.80617904663086" rx="2.5484182834625244" fill="#62CE80" fill-opacity="0.6000000238418579"/></g><g style="mix-blend-mode:passthrough" transform="matrix(0.8489680886268616,0.5284441709518433,-0.5237118005752563,0.8518955111503601,26.28935726336806,-61.9387606296807)"><rect x="121.46133995056152" y="15.170211791992188" width="5.079812526702881" height="26.896089553833008" rx="2.5399062633514404" fill="#62CE80" fill-opacity="0.6000000238418579"/></g><g style="mix-blend-mode:passthrough" transform="matrix(0.8487251400947571,0.5288341641426086,-0.523322343826294,0.8521348237991333,22.672028246216655,-61.40976149922869)"><rect x="118.64676475524902" y="9.026473999023438" width="3.361110210418701" height="26.742231369018555" rx="1.6805551052093506" fill="#62CE80" fill-opacity="0.6000000238418579"/></g><g style="mix-blend-mode:passthrough" transform="matrix(0.43060725927352905,0.9025394320487976,-0.9003698825836182,0.43512532114982605,136.28815836023875,-107.91653889503198)"><rect x="153.53738975524902" y="54.27223205566406" width="1.9882283210754395" height="25.155973434448242" rx="0.9941141605377197" fill="#62CE80" fill-opacity="0.6000000238418579"/></g><g style="mix-blend-mode:passthrough" transform="matrix(0.8450989127159119,0.5346100330352783,-0.5298640131950378,0.8480826020240784,44.58747592289217,-15.702766618953774)"><path d="M49.560475005249025,119.8561337158203L78.19584600524902,69.76643371582031Q69.13384600524903,82.02603371582032,61.812546005249025,94.63553371582032Q54.65939600524902,106.95523371582031,49.560475005249025,119.8561337158203ZM49.19754600524902,120.49093371582032L49.321746005249025,120.46333371582031Q49.44049200524903,120.15963371582032,49.560475005249025,119.8561337158203L49.19754600524902,120.49093371582032Z" fill="#CADBE6" fill-opacity="1"/></g></g></svg>